<?xml version="1.0" encoding="iso-8859-1"?>
<!-- Uploaded to: SVG Repo, www.svgrepo.com, Generator: SVG Repo Mixer Tools -->
<svg height="800px" width="800px" version="1.1" id="Layer_1" xmlns="http://www.w3.org/2000/svg" xmlns:xlink="http://www.w3.org/1999/xlink" 
	 viewBox="0 0 511.998 511.998" xml:space="preserve">
<g>
	<path style="fill:#F95428;" d="M411.781,257.333c12.175,12.175,14.779,30.286,7.826,45.012h-0.013
		c-1.89,4.005-4.495,7.773-7.813,11.091c-15.493,15.48-40.597,15.48-56.09,0c-12.135-12.135-14.766-30.154-7.892-44.854
		c1.89-4.072,4.534-7.892,7.892-11.25C371.185,241.853,396.288,241.853,411.781,257.333z"/>
	<path style="fill:#F95428;" d="M273.321,423.99c13.272,13.272,15.176,33.617,5.698,48.912c-1.586,2.565-3.477,4.971-5.698,7.191
		c-15.493,15.48-40.597,15.48-56.09,0c-14.251-14.251-15.401-36.658-3.397-52.217c1.018-1.348,2.155-2.644,3.397-3.887
		C232.724,408.51,257.828,408.51,273.321,423.99z"/>
	<path style="fill:#F95428;" d="M220.826,214.436c15.493,15.493,15.493,40.61,0,56.103c-0.767,0.767-1.56,1.507-2.38,2.168
		c-15.573,13.272-38.984,12.545-53.711-2.168c-15.48-15.493-15.48-40.61,0-56.103c1.626-1.626,3.371-3.093,5.195-4.362
		C185.412,199.128,206.972,200.582,220.826,214.436z"/>
	<path style="fill:#F95428;" d="M426.746,46.205c15.493,15.493,15.493,40.597,0,56.09c-4.204,4.204-9.095,7.257-14.33,9.174
		c-14.066,5.182-30.471,2.115-41.76-9.174c-15.493-15.493-15.493-40.597,0-56.09c5.777-5.777,12.902-9.412,20.358-10.866
		C403.546,32.866,417.03,36.489,426.746,46.205z"/>
</g>
<g>
	<path style="fill:#E54728;" d="M398.421,102.295c-15.493-15.493-15.493-40.597,0-56.09c4.154-4.154,9.009-7.181,14.178-9.106
		c-6.916-2.583-14.405-3.178-21.585-1.761c-7.456,1.454-14.581,5.089-20.358,10.866c-15.493,15.493-15.493,40.597,0,56.09
		c11.289,11.289,27.695,14.356,41.76,9.174c0.056-0.021,0.111-0.045,0.168-0.066C407.418,109.477,402.571,106.447,398.421,102.295z"
		/>
	<path style="fill:#E54728;" d="M192.501,270.539c-15.493-15.493-15.493-40.597,0-56.09c4.154-4.154,9.009-7.181,14.178-9.106
		c-6.916-2.583-14.405-3.178-21.585-1.761c-7.456,1.454-14.581,5.089-20.358,10.866c-15.493,15.493-15.493,40.597,0,56.09
		c11.289,11.289,27.695,14.356,41.76,9.174c0.056-0.021,0.111-0.045,0.168-0.066C201.498,277.721,196.652,274.691,192.501,270.539z"
		/>
	<path style="fill:#E54728;" d="M383.456,313.436c-15.493-15.493-15.493-40.597,0-56.09c4.154-4.154,9.009-7.181,14.178-9.106
		c-6.916-2.583-14.405-3.178-21.585-1.761c-7.456,1.454-14.581,5.089-20.358,10.866c-15.493,15.493-15.493,40.597,0,56.09
		c11.289,11.289,27.695,14.356,41.76,9.174c0.056-0.021,0.111-0.045,0.168-0.066C392.453,320.618,387.607,317.588,383.456,313.436z"
		/>
	<path style="fill:#E54728;" d="M244.996,480.094c-15.493-15.493-15.493-40.597,0-56.09c4.154-4.154,9.009-7.181,14.178-9.106
		c-6.916-2.583-14.405-3.178-21.585-1.761c-7.456,1.454-14.581,5.089-20.358,10.866c-15.493,15.493-15.493,40.597,0,56.09
		c11.289,11.289,27.695,14.356,41.76,9.174c0.056-0.021,0.111-0.045,0.168-0.066C253.993,487.276,249.146,484.246,244.996,480.094z"
		/>
</g>
<g>
	<circle style="fill:#FFFFFF;" cx="411.996" cy="65.994" r="9.915"/>
	<circle style="fill:#FFFFFF;" cx="395.247" cy="277.5" r="9.915"/>
	<circle style="fill:#FFFFFF;" cx="206.645" cy="231.682" r="9.915"/>
	<circle style="fill:#FFFFFF;" cx="259.522" cy="445.837" r="9.915"/>
</g>
<path style="fill:#333333;" d="M400.07,174.95c25.145-10.577,51.147-21.513,87.58-57.945c3.872-3.872,3.872-10.149,0-14.021
	c-3.873-3.872-10.15-3.872-14.022,0c-16.549,16.549-30.541,27.306-43.398,35.195l-6.023-21.419c3.405-2.042,6.619-4.522,9.551-7.453
	h0.001c19.329-19.331,19.329-50.783-0.001-70.113c-9.764-9.764-22.62-14.588-35.444-14.487l-4.912-17.473
	c-1.481-5.272-6.956-8.344-12.228-6.861c-5.271,1.482-8.343,6.956-6.86,12.228l4.562,16.227c-5.531,2.406-10.714,5.852-15.23,10.369
	c-19.329,19.329-19.329,50.783,0,70.112c9.667,9.666,22.359,14.498,35.058,14.498c2.258,0,4.516-0.16,6.758-0.467l6.898,24.533
	c-6.719,3.223-13.297,5.992-19.976,8.802c-20.679,8.698-41.943,17.653-69.105,40.816l1.183-18.679
	c0.346-5.465-3.803-10.175-9.268-10.521c-5.497-0.341-10.176,3.803-10.523,9.268l-2.518,39.746
	c-31.608,32.27-43.152,56.318-52.837,79.077l-17.788-22.969c15.545-19.447,14.322-47.972-3.687-65.98
	c-14.929-14.929-37.086-18.317-55.308-10.184l-11.804-15.234c-3.354-4.328-9.581-5.119-13.91-1.765s-5.119,9.581-1.765,13.91
	l11.358,14.658c-17.993,19.418-17.562,49.851,1.315,68.728c9.666,9.666,22.359,14.498,35.057,14.498
	c8.1,0,16.198-1.978,23.512-5.913l24.073,31.084c-8.811,19.39-20.441,39.473-47.201,66.233
	c-24.326,24.326-43.134,36.15-60.921,44.717l5.502-21.508c1.356-5.305-1.844-10.705-7.148-12.063
	c-5.302-1.356-10.705,1.844-12.063,7.148l-9.35,36.54c-24.307,10.249-49.732,21.679-84.844,56.791
	c-3.872,3.872-3.872,10.15,0,14.021c1.935,1.935,4.473,2.904,7.01,2.904s5.075-0.968,7.01-2.904
	c33.682-33.682,56.784-43.398,81.244-53.685c19.332-8.13,39.175-16.487,63.868-36.465l17.043,11.779
	c-8.753,18.417-5.527,41.154,9.695,56.376c9.666,9.666,22.361,14.498,35.057,14.498c12.696,0,25.392-4.833,35.057-14.498
	c0.245-0.245,0.471-0.498,0.709-0.746l14.688,10.149c1.721,1.188,3.684,1.758,5.628,1.758c3.148,0,6.242-1.495,8.167-4.279
	c3.112-4.505,1.983-10.68-2.521-13.793l-15.369-10.618c6.648-17.667,2.891-38.389-11.301-52.582
	c-9.365-9.363-21.815-14.522-35.057-14.522c-12.208,0-23.737,4.393-32.801,12.414l-13.584-9.388
	c2.709-2.534,5.469-5.193,8.299-8.023c13.879-13.879,24.051-26.242,31.92-37.623l41.727,3.1c0.25,0.019,0.498,0.028,0.744,0.028
	c5.142,0,9.49-3.97,9.878-9.181c0.406-5.461-3.692-10.216-9.153-10.622l-31.509-2.341c5.881-10.847,10.142-20.963,14.339-30.943
	c7.38-17.546,14.467-34.396,30.318-54.951l40.1,18.848c-3.877,16.219,0.496,34.027,13.127,46.658
	c9.365,9.363,21.815,14.522,35.057,14.522c13.243,0,25.693-5.157,35.058-14.522h-0.001c1.684-1.684,3.228-3.473,4.635-5.343
	l15.608,7.335c1.363,0.641,2.799,0.944,4.212,0.944c3.723,0,7.292-2.107,8.98-5.7c2.329-4.956,0.2-10.861-4.756-13.19l-15.565-7.316
	c0.925-3.814,1.409-7.764,1.409-11.788c0-13.243-5.157-25.693-14.52-35.057c-9.365-9.363-21.815-14.522-35.058-14.522
	c-13.242,0-25.692,5.157-35.057,14.522c-1.736,1.736-3.31,3.573-4.735,5.489l-35.26-16.573c3.124-3.423,6.483-6.948,10.139-10.605
	C352.507,194.955,375.609,185.239,400.07,174.95z M377.667,95.285c-11.599-11.599-11.599-30.472,0-42.07
	c5.799-5.799,13.416-8.698,21.035-8.698c7.618,0,15.235,2.899,21.035,8.698c11.599,11.599,11.599,30.471,0.001,42.07
	C408.136,106.885,389.262,106.882,377.667,95.285z M245.276,422.293c7.946,0,15.417,3.095,21.035,8.713
	c11.599,11.599,11.599,30.471,0,42.07c-11.597,11.597-30.471,11.597-42.07,0c-11.599-11.599-11.599-30.471,0-42.07
	C229.859,425.388,237.33,422.293,245.276,422.293z M171.749,263.522c-11.599-11.599-11.599-30.472,0-42.071
	c5.799-5.799,13.416-8.698,21.035-8.698c7.618,0,15.235,2.899,21.036,8.698c11.599,11.599,11.599,30.471,0,42.071
	C202.221,275.121,183.351,275.121,171.749,263.522z M362.702,264.35c5.618-5.618,13.087-8.713,21.033-8.713
	c7.948,0,15.417,3.095,21.036,8.714c5.618,5.618,8.713,13.089,8.713,21.035c0,7.946-3.095,15.417-8.713,21.035h-0.001
	c-5.618,5.618-13.087,8.713-21.035,8.713c-7.946,0-15.415-3.095-21.033-8.713C351.103,294.822,351.103,275.948,362.702,264.35z"/>
</svg>