<svg preserveAspectRatio="xMidYMid meet" data-bbox="5 5 190 190" viewBox="5 5 190 190" height="200" width="200" xmlns="http://www.w3.org/2000/svg" data-type="color" role="presentation" aria-hidden="true"><defs><style>#comp-jf6ir2ci svg [data-color="1"] {fill: #fafcfb;}</style></defs>
    <g>
        <path d="M167.175 32.825C149.232 14.882 125.375 5 100 5s-49.232 9.882-67.175 27.825S5 74.625 5 100s9.882 49.232 27.825 67.175S74.625 195 100 195s49.232-9.882 67.175-27.825S195 125.375 195 100s-9.882-49.232-27.825-67.175zm-1.242 133.108c-17.612 17.611-41.027 27.31-65.933 27.31s-48.322-9.699-65.933-27.31C16.456 148.322 6.757 124.906 6.757 100s9.699-48.322 27.31-65.933C51.678 16.456 75.094 6.757 100 6.757s48.322 9.699 65.933 27.31c17.611 17.612 27.31 41.027 27.31 65.933s-9.699 48.322-27.31 65.933zm-3.312-128.554C145.894 20.653 123.655 11.441 100 11.441S54.106 20.653 37.379 37.38C20.653 54.106 11.441 76.345 11.441 100s9.212 45.894 25.938 62.621C54.106 179.348 76.345 188.56 100 188.56s45.894-9.212 62.621-25.939S188.56 123.655 188.56 100s-9.213-45.894-25.939-62.621zm-1.242 124c-16.395 16.395-38.193 25.424-61.379 25.424s-44.984-9.029-61.379-25.424C22.226 144.984 13.197 123.186 13.197 100s9.029-44.984 25.424-61.379C55.016 22.226 76.814 13.197 100 13.197s44.984 9.029 61.379 25.424c16.395 16.395 25.424 38.193 25.424 61.379s-9.029 44.984-25.424 61.379zM101.484 26.615a2.45 2.45 0 0 0 2.447-2.446 2.45 2.45 0 0 0-2.447-2.447 2.45 2.45 0 0 0-2.447 2.447 2.449 2.449 0 0 0 2.447 2.446zm0-3.534a1.088 1.088 0 1 1 0 2.173 1.088 1.088 0 0 1 0-2.173zm0 145.02a2.45 2.45 0 0 0-2.447 2.447 2.45 2.45 0 0 0 2.447 2.446 2.45 2.45 0 0 0 2.447-2.446 2.45 2.45 0 0 0-2.447-2.447zm0 3.534c-.6 0-1.088-.488-1.088-1.087a1.09 1.09 0 0 1 2.176 0 1.09 1.09 0 0 1-1.088 1.087zm-14.483-65.638a.815.815 0 0 0 .672.542c.004.001.398.051 1.05.053h.077l.014.076c.568 2.959 1.847 5.037 1.9 5.122a.815.815 0 0 0 .804.382c.051-.005.407-.069.908-.205l.083-.023.03.081c.731 1.993 1.799 3.293 1.845 3.348a.827.827 0 0 0 .63.295.874.874 0 0 0 .114-.008c.07-.01 1.739-.252 3.625-1.243l.075-.04.047.072c.276.427.483.694.524.746a.819.819 0 0 0 .883.272c.024-.007 2.376-.734 4.763-2.543l.062-.047.058.052c.483.436.813.666.813.666a.82.82 0 0 0 .852.052c.185-.098 4.552-2.474 7.037-8.4l.028-.066.071.009c.539.071.892.084.99.087a.85.85 0 0 0 .721-.404c.155-.261 3.748-6.465.373-12.283-2.235-3.852-6.917-6.089-8.825-6.872l-.077-.032.022-.08c.659-2.418.975-5.858-1.268-8.514a.818.818 0 0 0-.329-.234h-.001a.818.818 0 0 0-.921 1.293c1.734 2.054 1.488 4.855.975 6.843l-.025.099-.097-.034c-1.92-.68-6.836-2.116-11.014-.779-6.382 2.038-7.909 9.056-7.971 9.354a.817.817 0 0 0 .262.781c.002.002.215.188.603.467l.059.043-.027.068c-2.227 5.699-.49 10.789-.415 11.004zm4.906 4.411l-.073.019-.034-.067a15.605 15.605 0 0 1-1.33-3.78l-.021-.099.1-.013c1.679-.228 3.24-.754 4.637-1.565l.093-.054.041.098a14.448 14.448 0 0 0 1.411 2.589l.042.06-.048.055c-1.467 1.679-3.648 2.448-4.818 2.757zm6.048 2.576a11.308 11.308 0 0 1-2.529.947l-.063.015-.036-.053a11.417 11.417 0 0 1-1.233-2.399l-.031-.084.083-.035a11.242 11.242 0 0 0 2.744-1.618l.127-.103.025.162a11.2 11.2 0 0 0 .956 3.045l.038.082-.081.041zm-.545-4.781l.296-.339-.008.452-.048-.308-.24.195zm.742-1.499l-.036-.052c-.746-1.076-3.076-4.92-1.718-9.202l.018-.056.059-.008c.725-.096 1.42-.258 2.068-.48 1.702-.584 3.303-1.799 4.759-3.612l.184-.23-.017.294c-.138 2.321.232 4.296 1.102 5.872.316.572.689 1.12 1.107 1.629l.037.045-.024.053c-1.848 4.131-6.191 5.432-7.478 5.733l-.061.014zm5.66-15.447A21.73 21.73 0 0 0 105 89.139a21.698 21.698 0 0 0-.539 2.34l.066-1.114-.715.892zm.067 20.493a16.347 16.347 0 0 1-3.461 1.925l-.071.029-.042-.064c-.663-1.01-1.769-3.039-1.729-5.273l.001-.074.071-.017a14.366 14.366 0 0 0 2.745-.949l.096-.045.033.101a12.555 12.555 0 0 0 2.373 4.231l.065.077-.081.059zm8.338-6.787c-1.786 4.015-4.547 6.18-5.65 6.924l-.059.04-.055-.047a10.73 10.73 0 0 1-.568-.527l-.007-.007-.071-.104a.879.879 0 0 0-.182-.154l-.009-.009c-.881-.931-2.054-2.474-2.642-4.535l-.019-.067.059-.038c1.69-1.087 2.994-2.492 3.878-4.176l.055-.104.089.076a12.303 12.303 0 0 0 3.575 2.103c.492.19 1.012.357 1.544.496l.107.028-.045.101zm-6.149-16.31c.116-.268.387-.956.563-1.407l.087.036c1.347.559 5.897 2.654 7.913 6.132 2.405 4.145.524 8.801-.11 10.13l-.028.06-.066-.007a13.133 13.133 0 0 1-3.228-.788c-2.343-.903-4.09-2.374-5.194-4.372-1.78-3.225-.554-7.902.063-9.784zm-17.796 4.771c.422-1.41 2.155-6.124 6.717-7.582 3.84-1.228 8.625.281 10 .773l.092.033-.306.743-.321.851c-.797 1.748-3.021 5.941-6.443 7.115-2.159.74-4.441.657-6.784-.246a13.177 13.177 0 0 1-2.921-1.584l-.054-.039.02-.064zm.544 2.484l.037-.102.096.052c.555.3 1.124.563 1.69.781 1.29.497 2.609.778 3.92.833l.116.005-.028.112c-.458 1.811-.433 3.698.075 5.608l.017.067-.059.036c-1.811 1.14-3.754 1.508-5.078 1.614l-.007-.001-.076-.008-.069-.015-.102.026-.079.019c-.278.014-.545.018-.797.012l-.071-.001-.017-.069c-.349-1.381-1.005-5.02.432-8.969zm-12 21.82a7.285 7.285 0 0 0 .726-5.568 7.275 7.275 0 0 0-2.698-3.968c.91-1.029 2.09-1.944 3.557-2.272a.815.815 0 1 0-.355-1.591c-1.99.444-3.519 1.687-4.639 3.021a7.27 7.27 0 0 0-4.857-.367 7.284 7.284 0 0 0-4.451 3.424c-2.019 3.506-.809 8 2.697 10.019a7.346 7.346 0 0 0 10.02-2.698zm-9.206 1.284a5.714 5.714 0 0 1-2.098-7.792 5.67 5.67 0 0 1 3.462-2.663 5.632 5.632 0 0 1 3.437.15c-.48.745-.835 1.441-1.074 1.964a3.011 3.011 0 0 1-.349-.849.815.815 0 0 0-1.599.323c.246 1.239 1.524 3.554 4.597 3.554l.111-.001a.815.815 0 0 0 .801-.83.81.81 0 0 0-.83-.801 3.397 3.397 0 0 1-1.443-.262c.189-.457.597-1.352 1.232-2.316a5.712 5.712 0 0 1 1.544 7.425 5.67 5.67 0 0 1-3.462 2.663 5.67 5.67 0 0 1-4.329-.565zm49.992-44.241a7.286 7.286 0 0 0 1.278 5.468 7.283 7.283 0 0 0 3.923 2.771c-.49 1.281-1.274 2.549-2.534 3.373a.816.816 0 0 0 .892 1.366c1.709-1.116 2.704-2.819 3.282-4.464.134.007.269.016.403.016 3.525 0 6.644-2.556 7.235-6.145a7.286 7.286 0 0 0-1.278-5.468 7.288 7.288 0 0 0-4.77-2.963 7.286 7.286 0 0 0-5.468 1.278 7.283 7.283 0 0 0-2.963 4.768zm3.914-3.444a5.665 5.665 0 0 1 4.252-.994 5.673 5.673 0 0 1 3.71 2.304 5.668 5.668 0 0 1 .993 4.252c-.457 2.774-2.854 4.748-5.574 4.773.187-.864.275-1.64.314-2.213.367.292.575.594.625.673a.815.815 0 0 0 1.382-.865c-.674-1.086-2.723-2.832-5.657-1.67a.816.816 0 1 0 .601 1.517c.543-.215 1.022-.283 1.444-.263a14.07 14.07 0 0 1-.336 2.604 5.663 5.663 0 0 1-3.067-2.157 5.67 5.67 0 0 1-.993-4.253 5.676 5.676 0 0 1 2.306-3.708zm30.322 34.757c-1.561-.802-3.33-.974-5.17-.519a6.444 6.444 0 0 0-3.037-2.577 6.438 6.438 0 0 0-5.602.358c-2.668 1.51-5.577 2.053-8.414 1.57-2.461-.42-5.014.05-7.186 1.319-4.533 2.648-6.468 8.316-4.501 13.185 1.125 2.785 3.282 4.911 6.074 5.984 1.231.473 2.53.708 3.829.708 1.605 0 3.208-.36 4.674-1.073a10.61 10.61 0 0 0 4.683-4.455c1.467-2.675 3.684-4.67 6.243-5.62a6.42 6.42 0 0 0 3.919-7.884c1.147-.235 2.456-.209 3.744.453a.815.815 0 1 0 .744-1.449zm-8.162 6.962a4.916 4.916 0 0 1-.812.39c-2.926 1.086-5.449 3.346-7.105 6.364a8.976 8.976 0 0 1-3.967 3.772 9.078 9.078 0 0 1-7.204.308 8.972 8.972 0 0 1-5.146-5.072c-1.666-4.123-.028-8.923 3.811-11.165a8.983 8.983 0 0 1 6.09-1.12c3.21.547 6.492-.061 9.492-1.759a4.807 4.807 0 0 1 4.181-.268c.84.343 1.54.9 2.057 1.613-.464.203-.872.419-1.21.618.034-.157.074-.268.09-.308a.816.816 0 0 0-1.505-.628c-.423 1.003-.63 3.287 1.615 4.749a.815.815 0 1 0 .89-1.367 2.693 2.693 0 0 1-.764-.726c.34-.23.902-.574 1.608-.875.61 2.051-.271 4.368-2.121 5.474zm-10.019 6.916c-.96 1.294-3.154 3.121-5.933 3.121-1.002 0-2.081-.237-3.205-.823a.816.816 0 0 1 .753-1.447c1.705.889 3.404.859 5.05-.087a7.295 7.295 0 0 0 2.025-1.736.815.815 0 1 1 1.31.972zM84.376 62.177a101.129 101.129 0 0 0 3.528-2.355 10.495 10.495 0 0 1 2.803-1.391c-.48.435-.98.936-1.467 1.499l-.326.293c-.258.231-6.311 5.76-6.616 14.388-.203 5.757-.876 7.944-.882 7.963l-.758 2.337 2.005-1.419c.414-.293 10.14-7.262 9.797-14.217-.156-3.155-.691-5.38-2.01-8.25a16.866 16.866 0 0 1 3.546-3.072c.082.003.157.007.224.011l.005.018.29.008.082.011a.825.825 0 0 0 .468.012c1.033.065 2.212.347 3.513.846 1.399.537 2.429 1.506 3.425 2.444 1.438 1.353 2.916 2.744 5.351 2.744.582 0 1.218-.079 1.922-.258 2.276-.576 3.915-1.772 4.872-3.553 1.167-2.173 1.059-4.739.737-6.582.646-.602 1.042-1.194 1.185-1.77.266-.068.548-.158.836-.271.144-.027.294-.049.45-.064 1.126-.106 1.941.204 2.484.949a.816.816 0 1 0 1.318-.959 3.802 3.802 0 0 0-2.029-1.437c.512-.6.873-1.357.927-2.304a.815.815 0 1 0-1.628-.092c-.052.921-.567 1.622-1.573 2.145-.134.069-.268.13-.399.184a7.039 7.039 0 0 0-.729.187c-.419-.539-1.159-.944-2.237-1.226-.741-1.699-2.027-3.817-4.12-4.974-1.77-.978-3.795-1.094-6.02-.344-3.567 1.202-4.175 3.657-4.763 6.032-.329 1.328-.669 2.701-1.554 3.91-.871 1.191-1.759 2.106-2.64 2.723a8.163 8.163 0 0 0-.512-.023.843.843 0 0 0-.207-.001c-1.512.008-3.978.364-6.445 1.992-.51.055-1.122-.038-2.712-4.051-1.774-4.479-11.27-6.135-11.674-6.204l-1.12-.19.179 1.122c.108.679 1.15 6.671 4.312 7.85 1.823.68 3.898.201 5.566-.184.652-.151 1.537-.356 1.821-.298l.03.022c.655 1.486 1.254 2.492 1.964 3.048-.675.455-1.343.895-2.001 1.316-1.883-.52-9.682-2.391-16.141.275-7.195 2.969-10.219 7.215-10.344 7.394l-.7 1.003 1.196.26a22.15 22.15 0 0 0 4.739.503c6.299 0 13.346-2.53 21.642-7.754a.804.804 0 0 0 .39-.246zm30.077-10.93c.001.024-.001.048.002.073.007.054.02.106.037.156a.905.905 0 0 1-.081.216c-.04-.127-.075-.234-.103-.314a10.368 10.368 0 0 0-.092-.348.894.894 0 0 1 .237.217zm-16.102 3.335c1.074-1.469 1.47-3.069 1.82-4.481.548-2.214.981-3.963 3.701-4.879 1.772-.597 3.357-.521 4.71.226 2.94 1.624 4.035 5.872 4.151 6.351l.023.079c.163.465 1.545 4.626-.044 7.587-.731 1.361-2.022 2.285-3.835 2.744-2.783.704-4.094-.53-5.755-2.093-1.059-.997-2.26-2.127-3.959-2.778a15.874 15.874 0 0 0-2.525-.753 16.241 16.241 0 0 0 1.713-2.003zm-16.937.483c-1.455.336-3.267.754-4.63.245-1.542-.575-2.562-3.508-3.028-5.409 2.95.662 8.069 2.297 9.201 4.855-.454.057-.967.176-1.543.309zm2.009 25.755c.198-1.339.406-3.336.505-6.151.216-6.116 3.688-10.647 5.285-12.417 1.046 2.407 1.484 4.384 1.618 7.103.22 4.436-4.71 9.202-7.408 11.465zM59.314 68.33c1.301-1.378 4.112-3.887 8.76-5.805 4.807-1.984 10.63-1.187 13.564-.57-8.739 5.256-15.958 7.308-22.324 6.375zm46.522 74.06a.822.822 0 0 0-.455-.084c-1.343-.246-2.739-.47-4.188-.673a10.498 10.498 0 0 1-2.999-.886l.202.002c.589 0 1.226-.031 1.886-.104l.443.007.082.001c.935 0 8.713-.182 14.554-6.049 4.064-4.082 6.046-5.228 6.062-5.238l2.144-1.198-2.435-.323c-.503-.066-12.373-1.573-16.851 3.759-2.032 2.419-3.153 4.414-4.138 7.415a16.878 16.878 0 0 1-4.688-.16 10.841 10.841 0 0 1-.158-.161l.008-.017-.207-.204a2.575 2.575 0 0 1-.052-.063.812.812 0 0 0-.328-.321c-.716-.751-1.39-1.762-2.005-3.016-.661-1.345-.756-2.756-.849-4.121-.166-2.441-.337-4.965-3.641-6.77-2.06-1.125-4.074-1.364-5.986-.709-2.332.798-4 2.753-5.018 4.324-.88.001-1.574.165-2.072.49a7.21 7.21 0 0 0-.811-.378 4.907 4.907 0 0 1-.361-.251c-.9-.689-1.285-1.47-1.175-2.386a.815.815 0 1 0-1.62-.192 3.809 3.809 0 0 0 .508 2.431 3.805 3.805 0 0 0-2.245 1.062.816.816 0 0 0 1.131 1.175c.664-.639 1.518-.805 2.612-.502.149.041.29.09.425.141.222.136.444.255.657.356-.06.679.207 1.478.803 2.416-.613 1.75-1.112 4.18-.364 6.452.632 1.92 2.038 3.382 4.178 4.346 1.076.485 2.022.681 2.878.681 1.874 0 3.312-.942 4.717-1.863 1.144-.75 2.327-1.525 3.798-1.81 1.449-.281 2.723-.346 3.791-.2.101.109.218.228.352.357a.805.805 0 0 0 .165.154c1.113 1.02 3.158 2.425 6.063 2.911.415.306.818.767-.758 4.822-1.746 4.49 4.089 12.163 4.338 12.488l.692.901.632-.944c.383-.572 3.694-5.672 2.178-8.687-.874-1.738-2.721-2.799-4.206-3.651-.581-.333-1.369-.786-1.537-1.02l-.007-.036c.53-1.535.776-2.68.634-3.57.805.126 1.593.257 2.362.396 1.026 1.662 5.471 8.337 12.019 10.777 4.055 1.511 7.433 1.855 9.67 1.855 1.787 0 2.847-.22 2.942-.24l1.196-.259-.699-1.004c-4.374-6.287-12.146-10.348-24.269-12.629zm-.305-9.737c2.402-2.859 7.629-3.414 11.322-3.414.7 0 1.346.02 1.907.048-1.056.847-2.567 2.169-4.554 4.165-4.318 4.336-9.946 5.297-12.32 5.509.871-2.477 1.894-4.224 3.645-6.308zm-29.632-2.795c.015-.018.034-.032.048-.052a.908.908 0 0 0 .079-.138.92.92 0 0 1 .205-.102c-.057.119-.103.221-.137.298-.044.08-.102.187-.17.317a.886.886 0 0 1-.025-.323zm14.071 8.51c-1.786.346-3.165 1.25-4.382 2.047-1.908 1.25-3.414 2.238-6.032 1.059-1.705-.768-2.815-1.901-3.298-3.369-1.05-3.189 1.036-7.05 1.277-7.479l.037-.073c.197-.452 2.018-4.445 5.194-5.532a4.922 4.922 0 0 1 1.607-.268c.987 0 2.014.289 3.069.865 2.519 1.375 2.641 3.173 2.795 5.449.099 1.451.21 3.096 1.012 4.729.418.851.866 1.61 1.339 2.27-.812.021-1.686.122-2.618.302zm12.746 11.166c1.295.744 2.907 1.67 3.56 2.969.74 1.471-.507 4.314-1.46 6.025-1.713-2.492-4.353-7.171-3.443-9.817.373.266.83.529 1.343.823zm14.852 3.604c-4.873-1.815-8.6-6.36-10.331-8.807 9.98 2.091 16.668 5.498 20.701 10.51-1.892.125-5.658.052-10.37-1.703zm11.57-57.378a3.454 3.454 0 0 0 3.45 3.45c1.903 0 3.45-1.548 3.45-3.45s-1.548-3.45-3.45-3.45a3.453 3.453 0 0 0-3.45 3.45zm3.45-1.819c1.003 0 1.819.816 1.819 1.819a1.821 1.821 0 0 1-1.819 1.819 1.821 1.821 0 0 1-1.819-1.819c0-1.003.816-1.819 1.819-1.819zm-65.515-4.915c0 1.903 1.548 3.45 3.45 3.45s3.45-1.548 3.45-3.45c0-1.903-1.548-3.45-3.45-3.45s-3.45 1.548-3.45 3.45zm5.27 0a1.821 1.821 0 0 1-1.819 1.819 1.821 1.821 0 0 1-1.819-1.819c0-1.003.816-1.819 1.819-1.819 1.003 0 1.819.816 1.819 1.819zm111.348-5.079l-1.07.36c-.135.045-3.33 1.154-5.664 5.038-.292.486-.538.956-.745 1.407a64.18 64.18 0 0 0-6.178-18.246 64.112 64.112 0 0 0-4.247-7.027c.588-.874 2.224-3.493 2.566-6.033.493-3.66-1.237-7.338-1.311-7.492l-.486-1.019-.815.782c-.103.099-2.519 2.465-2.971 6.974a13.553 13.553 0 0 0-.003 2.772 64.832 64.832 0 0 0-11.9-11.316.817.817 0 0 0-.595-.149c-.923-.409-3.566-1.344-7.185-.617-4.624.931-6.301 3.448-6.37 3.555l-.569.878.99.337c.129.044 2.701.909 5.306.909.526 0 1.055-.035 1.564-.12 2.92-.485 5.43-2.338 6.376-3.114 7.572 5.662 13.861 13.058 18.202 21.431.502.968.973 1.952 1.423 2.946-2.028-1.778-3.901-2.373-4.274-2.478a4.785 4.785 0 0 0-.482-1.36 4.746 4.746 0 0 0-2.831-2.319 4.751 4.751 0 0 0-3.641.362 4.746 4.746 0 0 0-2.319 2.831 4.75 4.75 0 0 0 .362 3.642 4.75 4.75 0 0 0 3.14 2.4c-.331.442-.591.94-.756 1.485a4.747 4.747 0 0 0 .362 3.641 4.785 4.785 0 0 0 6.472 1.958 4.75 4.75 0 0 0 2.319-2.831 4.79 4.79 0 0 0 .203-1.314c.002-.026.004-.052.004-.079 0-.213-.02-.424-.049-.635.005-.669.212-1.908 1.462-3.028.705.78 1.398 1.736 2.002 2.908a.803.803 0 0 0 .173.22 63.095 63.095 0 0 1 3.011 13.266c-.034.952.108 1.523.122 1.576l.062.237c.155 1.793.237 3.594.237 5.396 0 .536-.009 1.071-.023 1.606a13 13 0 0 0-3.055-3.327c-3.731-2.887-6.731-2.507-6.857-2.489l-1.036.145.393.969c.062.152 1.538 3.749 3.901 5.71 2.227 1.848 5.188 2.543 6.446 2.767a62.37 62.37 0 0 1-9.835 28.707.815.815 0 1 0 1.368.888 64.015 64.015 0 0 0 10.087-29.388l.104.012-.076-.362c.14-1.736.214-3.483.214-5.237 0-1.813-.081-3.625-.235-5.428 1.041-.64 3.396-2.231 4.699-4.241 2.008-3.099 2.013-7.163 2.012-7.335l-.004-1.131zm-19.299-25.093c.229-2.283 1.041-3.937 1.674-4.916.427 1.276.935 3.322.67 5.291-.22 1.633-1.114 3.384-1.766 4.483-.393-.961-.807-2.576-.578-4.858zm-20.651-5.522c-1.632.27-3.574-.072-4.816-.372.794-.657 2.208-1.521 4.484-1.979 2.252-.453 4.072-.163 5.193.154-1.091.783-2.894 1.87-4.861 2.197zm14.52 22.776a3.153 3.153 0 0 1 1.29-4.264 3.129 3.129 0 0 1 2.399-.238 3.13 3.13 0 0 1 1.865 1.528c.397.742.482 1.594.238 2.399a3.13 3.13 0 0 1-1.528 1.865 3.129 3.129 0 0 1-2.399.238 3.124 3.124 0 0 1-1.865-1.528zm7.01 8.817a3.152 3.152 0 0 1-4.502-3.689 3.13 3.13 0 0 1 1.528-1.865 3.152 3.152 0 0 1 4.264 1.289c.166.309.273.637.329.973.005.245.025.436.043.557a3.165 3.165 0 0 1-.134.869 3.13 3.13 0 0 1-1.528 1.866zm2.195-5.828a4.75 4.75 0 0 0-2.298-1.525c-.103-.031-.207-.054-.311-.078.333-.443.593-.942.758-1.488a4.9 4.9 0 0 0 .129-.552c.627.247 1.798.803 3.065 1.883a6.032 6.032 0 0 0-1.343 1.76zm2.487 24.341c-1.269-1.053-2.279-2.739-2.866-3.874 1.024.176 2.613.681 4.426 2.084 1.815 1.405 2.788 2.969 3.282 4.025-1.309-.313-3.313-.966-4.842-2.235zm10.362-11.914c-.897 1.383-2.452 2.585-3.511 3.301.054-1.037.37-2.674 1.551-4.64 1.183-1.968 2.623-3.118 3.614-3.732-.157 1.333-.57 3.397-1.654 5.071zm-21.451-40.903a2.45 2.45 0 0 0 2.447-2.446 2.45 2.45 0 0 0-2.447-2.447 2.45 2.45 0 0 0-2.447 2.447 2.45 2.45 0 0 0 2.447 2.446zm0-3.534a1.088 1.088 0 1 1 0 2.173 1.088 1.088 0 0 1 0-2.173zm-3.314 78.211a2.314 2.314 0 0 0-2.311 2.311c0 1.274 1.036 2.311 2.311 2.311s2.311-1.036 2.311-2.311a2.314 2.314 0 0 0-2.311-2.311zm0 3.262a.952.952 0 1 1 .002-1.904.952.952 0 0 1-.002 1.904zM56.545 45.13a.816.816 0 0 0-1.134-.212 64.014 64.014 0 0 0-20.605 23.255l-.092-.051-.069.363a64.764 64.764 0 0 0-2.21 4.753 64.211 64.211 0 0 0-1.87 5.102c-1.207.191-3.993.755-5.968 2.109-3.045 2.089-4.611 5.84-4.676 5.998l-.429 1.044 1.126.079c.021.001.113.007.266.007.881 0 3.792-.19 6.9-2.482.457-.337.864-.676 1.229-1.013a64.196 64.196 0 0 0-1.309 19.219c.229 2.727.643 5.44 1.221 8.12-.878.581-3.396 2.37-4.687 4.583-1.862 3.189-1.678 7.249-1.669 7.421l.057 1.128 1.052-.409c.133-.051 3.273-1.308 5.424-5.296a13.7 13.7 0 0 0 1.071-2.55 64.834 64.834 0 0 0 6.634 15.012c.115.19.294.315.493.367.696.733 2.776 2.611 6.395 3.329.989.196 1.881.274 2.674.274 2.917 0 4.491-1.051 4.573-1.107l.862-.592-.784-.692c-.123-.109-3.05-2.669-6.039-3.368-2.882-.674-5.911.072-7.083.425-4.815-8.137-7.779-17.382-8.569-26.78a62.436 62.436 0 0 1-.182-3.266c1.189 2.421 2.69 3.69 2.993 3.931a4.817 4.817 0 0 0-.078 1.441 4.752 4.752 0 0 0 1.722 3.229 4.747 4.747 0 0 0 3.501 1.066 4.752 4.752 0 0 0 3.229-1.722 4.752 4.752 0 0 0 1.066-3.501 4.752 4.752 0 0 0-1.722-3.229c-.083-.068-.171-.129-.258-.192a4.79 4.79 0 0 0 1.272-1.083 4.752 4.752 0 0 0 1.066-3.501 4.785 4.785 0 0 0-5.223-4.294 4.752 4.752 0 0 0-3.229 1.722c-.288.35-.518.734-.694 1.139-.011.022-.023.043-.032.067-.082.197-.145.4-.199.605-.262.616-.93 1.682-2.518 2.235a13.72 13.72 0 0 1-.726-3.455.812.812 0 0 0-.075-.275 63.084 63.084 0 0 1 2.318-13.398c.398-.867.486-1.449.494-1.503l.034-.245a62.637 62.637 0 0 1 1.855-5.071c.206-.495.42-.986.638-1.474.208 1.211.649 2.68 1.541 4.246 2.335 4.099 5.251 4.901 5.374 4.933l1.012.264.01-1.046c.001-.164.021-4.053-1.407-6.77-1.346-2.562-3.812-4.342-4.888-5.032a62.381 62.381 0 0 1 20.112-22.723.816.816 0 0 0 .21-1.134zm-29.73 38.654c-1.848 1.363-3.62 1.87-4.771 2.057.657-1.17 1.831-2.918 3.476-4.046 1.359-.932 3.257-1.443 4.51-1.698-.449.936-1.369 2.326-3.215 3.687zm.85 34.29c-1.09 2.021-2.476 3.237-3.436 3.896.095-1.339.411-3.421 1.416-5.143.834-1.427 2.338-2.703 3.362-3.467-.002 1.032-.241 2.672-1.342 4.714zm16.943 13.036c1.605.376 3.262 1.433 4.294 2.187-.995.3-2.642.557-4.891.11-2.252-.447-3.822-1.414-4.735-2.138 1.308-.304 3.39-.615 5.332-.159zm-4.651-26.608a3.132 3.132 0 0 1-.702 2.307 3.13 3.13 0 0 1-2.127 1.135 3.142 3.142 0 0 1-2.307-.702 3.13 3.13 0 0 1-1.135-2.127 3.132 3.132 0 0 1 .702-2.307 3.13 3.13 0 0 1 2.439-1.15c.727 0 1.426.249 1.995.717a3.128 3.128 0 0 1 1.135 2.127zm-3.084-10.834a3.126 3.126 0 0 1 2.307.702 3.13 3.13 0 0 1 1.135 2.127 3.133 3.133 0 0 1-.702 2.307 3.125 3.125 0 0 1-2.127 1.134 3.139 3.139 0 0 1-2.307-.702 3.13 3.13 0 0 1-1.065-3.151 4.5 4.5 0 0 0 .175-.532 3.158 3.158 0 0 1 2.584-1.885zm-4.266 4.537a4.751 4.751 0 0 0 1.791 2.484 4.776 4.776 0 0 0-1.27 1.081 4.789 4.789 0 0 0-.333.463c-.485-.465-1.355-1.425-2.112-2.917a6.048 6.048 0 0 0 1.924-1.111zm7.059-23.427c.769 1.464 1.053 3.415 1.158 4.689-.873-.548-2.137-1.62-3.286-3.636-1.136-1.995-1.433-3.815-1.483-4.979 1.085.789 2.683 2.16 3.611 3.926zm-7.782 55.111a2.432 2.432 0 0 0-1.873-.003 2.433 2.433 0 0 0-1.327 1.322 2.433 2.433 0 0 0-.003 1.873 2.43 2.43 0 0 0 1.322 1.327 2.446 2.446 0 0 0 1.872.003 2.45 2.45 0 0 0 .009-4.522zm.064 2.677a1.089 1.089 0 0 1-2.01-.003 1.077 1.077 0 0 1 .002-.832 1.089 1.089 0 0 1 1.422-.587 1.083 1.083 0 0 1 .586 1.422zm14.504-71.139a2.314 2.314 0 0 0-3.022 1.245 2.315 2.315 0 0 0 2.13 3.199c.906 0 1.767-.536 2.137-1.423.237-.57.238-1.198.003-1.769a2.297 2.297 0 0 0-1.248-1.252zm-.01 2.499a.952.952 0 1 1-1.756-.732.952.952 0 0 1 1.756.732z" fill="#2a3d31" data-color="1"></path>
    </g>
</svg>