<?xml version="1.0" encoding="utf-8"?>
<!-- Uploaded to: SVG Repo, www.svgrepo.com, Generator: SVG Repo Mixer Tools -->
<svg width="800px" height="800px" viewBox="-3.84 0 50.115 50.115" xmlns="http://www.w3.org/2000/svg">
  <g id="Group_1629" data-name="Group 1629" transform="translate(3289.749 -2466.806)">
    <path id="Path_3497" data-name="Path 3497" d="M-3273.557,2486.657c.313-8.4,2.144-14.311,6.528-17.479l2.3,4.1c4.8-5.568,14.336-.768,14.336-.768s0,7.168-2.209,9.674" fill="#ffffff" fill-rule="evenodd"/>
    <path id="Path_3498" data-name="Path 3498" d="M-3270.485,2489.729c.313-8.4,2.144-14.31,6.528-17.478l2.3,4.1c4.8-5.568,14.336-.768,14.336-.768s0,7.168-2.209,9.673" fill="#5db67d" fill-rule="evenodd"/>
    <path id="Path_3499" data-name="Path 3499" d="M-3273.557,2487.617h-.037a.96.96,0,0,1-.923-.995c.346-9.266,2.547-15.057,6.925-18.221a.962.962,0,0,1,.769-.16.96.96,0,0,1,.63.467l1.686,3c5.386-4.581,14.157-.255,14.549-.057a.959.959,0,0,1,.529.858c0,.77-.07,7.607-2.449,10.308a.959.959,0,0,1-1.355.085.958.958,0,0,1-.085-1.354c1.462-1.659,1.891-6.185,1.958-8.427-1.991-.856-9-3.44-12.639.782a.963.963,0,0,1-.822.328.962.962,0,0,1-.742-.485l-1.749-3.109c-3.3,2.935-4.989,8.083-5.286,16.058a.96.96,0,0,1-.959.924" fill="#6f0911" fill-rule="evenodd"/>
    <path id="Path_3500" data-name="Path 3500" d="M-3273.972,2487.058H-3274a.96.96,0,0,1-.935-.984c0-.092.2-9.29-3.1-13.686a.959.959,0,0,1,.192-1.344.96.96,0,0,1,1.344.192c3.7,4.932,3.5,14.483,3.485,14.888a.961.961,0,0,1-.959.935" fill="#6f0911" fill-rule="evenodd"/>
    <path id="Path_3501" data-name="Path 3501" d="M-3286.261,2474.72a3.285,3.285,0,0,1-3.488-3.181,4.493,4.493,0,0,1,2.357-4.046c2.1-1.161,4.975-.836,7.7.871a.957.957,0,0,1,.3,1.323.959.959,0,0,1-1.323.3c-2.5-1.565-4.607-1.449-5.747-.817a2.59,2.59,0,0,0-1.366,2.366c0,1,1.025,1.261,1.568,1.261a1.657,1.657,0,0,0,1.015-.308.972.972,0,0,0,.361-.815.96.96,0,0,1,.96-.96.96.96,0,0,1,.96.96,2.889,2.889,0,0,1-1.088,2.32,3.562,3.562,0,0,1-2.208.723" fill="#6f0911" fill-rule="evenodd"/>
    <path id="Path_3502" data-name="Path 3502" d="M-3256.6,2505.874a6.334,6.334,0,0,1-4.478,7.759,6.334,6.334,0,0,1-7.758-4.48,6.333,6.333,0,0,1,4.479-7.758,6.334,6.334,0,0,1,7.757,4.479" fill="#ffffff" fill-rule="evenodd"/>
    <path id="Path_3503" data-name="Path 3503" d="M-3253.529,2508.946a6.333,6.333,0,0,1-4.478,7.758,6.335,6.335,0,0,1-7.759-4.479,6.335,6.335,0,0,1,4.48-7.758,6.333,6.333,0,0,1,7.757,4.479" fill="#ba1775" fill-rule="evenodd"/>
    <path id="Path_3504" data-name="Path 3504" d="M-3262.732,2514.812a7.253,7.253,0,0,1-3.635-.981,7.245,7.245,0,0,1-3.4-4.429,7.267,7.267,0,0,1-.187-2.848.97.97,0,0,1,1.078-.826.962.962,0,0,1,.826,1.078,5.336,5.336,0,0,0,.138,2.1,5.332,5.332,0,0,0,2.5,3.263,5.347,5.347,0,0,0,4.079.537,5.339,5.339,0,0,0,3.263-2.5,5.344,5.344,0,0,0,.538-4.08,5.339,5.339,0,0,0-1-1.974.961.961,0,0,1,.147-1.35.962.962,0,0,1,1.351.147,7.253,7.253,0,0,1,1.356,2.682,7.244,7.244,0,0,1-.728,5.535,7.244,7.244,0,0,1-4.43,3.4,7.343,7.343,0,0,1-1.9.252" fill="#6f0911" fill-rule="evenodd"/>
    <path id="Path_3505" data-name="Path 3505" d="M-3253.471,2495.136a6.619,6.619,0,0,1-4.68,8.108,6.621,6.621,0,0,1-8.109-4.682,6.621,6.621,0,0,1,4.681-8.108,6.62,6.62,0,0,1,8.108,4.682" fill="#ffffff" fill-rule="evenodd"/>
    <path id="Path_3506" data-name="Path 3506" d="M-3250.4,2498.207a6.621,6.621,0,0,1-4.682,8.109,6.62,6.62,0,0,1-8.107-4.682,6.623,6.623,0,0,1,4.681-8.109,6.621,6.621,0,0,1,8.108,4.682" fill="#ba1775" fill-rule="evenodd"/>
    <path id="Path_3507" data-name="Path 3507" d="M-3264.128,2497.991a6.621,6.621,0,0,1-4.682,8.108,6.62,6.62,0,0,1-8.108-4.68,6.62,6.62,0,0,1,4.681-8.109,6.622,6.622,0,0,1,8.109,4.681" fill="#ffffff" fill-rule="evenodd"/>
    <path id="Path_3508" data-name="Path 3508" d="M-3261.056,2501.063a6.62,6.62,0,0,1-4.682,8.108,6.618,6.618,0,0,1-8.107-4.68,6.618,6.618,0,0,1,4.68-8.109,6.622,6.622,0,0,1,8.109,4.681" fill="#ba1775" fill-rule="evenodd"/>
    <path id="Path_3509" data-name="Path 3509" d="M-3270.522,2507.286a7.592,7.592,0,0,1-7.323-5.62,7.515,7.515,0,0,1-.108-3.474.959.959,0,0,1,1.133-.749.961.961,0,0,1,.749,1.133,5.594,5.594,0,0,0,.081,2.594,5.621,5.621,0,0,0,2.636,3.437,5.626,5.626,0,0,0,4.3.565,5.666,5.666,0,0,0,4-6.932,5.576,5.576,0,0,0-1.228-2.287.962.962,0,0,1,.082-1.356.962.962,0,0,1,1.356.082,7.512,7.512,0,0,1,1.645,3.064,7.53,7.53,0,0,1-.757,5.751,7.528,7.528,0,0,1-4.6,3.532,7.533,7.533,0,0,1-1.96.26" fill="#6f0911" fill-rule="evenodd"/>
    <path id="Path_3510" data-name="Path 3510" d="M-3259.854,2504.428a7.613,7.613,0,0,1-4.777-1.685.957.957,0,0,1-.144-1.349.96.96,0,0,1,1.349-.144,5.689,5.689,0,0,0,5.026,1.067,5.67,5.67,0,0,0,4-6.934,5.652,5.652,0,0,0-.981-1.988.96.96,0,0,1,.175-1.346.961.961,0,0,1,1.346.175,7.546,7.546,0,0,1,1.314,2.663,7.591,7.591,0,0,1-5.361,9.285,7.57,7.57,0,0,1-1.95.256" fill="#6f0911" fill-rule="evenodd"/>
    <path id="Path_3511" data-name="Path 3511" d="M-3271.933,2490.182a6.619,6.619,0,0,1-4.68,8.108,6.619,6.619,0,0,1-8.109-4.68,6.621,6.621,0,0,1,4.681-8.109,6.62,6.62,0,0,1,8.108,4.681" fill="#ffffff" fill-rule="evenodd"/>
    <path id="Path_3512" data-name="Path 3512" d="M-3268.861,2493.254a6.621,6.621,0,0,1-4.681,8.108,6.619,6.619,0,0,1-8.108-4.68,6.621,6.621,0,0,1,4.681-8.109,6.62,6.62,0,0,1,8.108,4.681" fill="#ba1775" fill-rule="evenodd"/>
    <path id="Path_3513" data-name="Path 3513" d="M-3278.33,2486.235a5.687,5.687,0,0,0-1.462.193,5.667,5.667,0,0,0-4,6.933,5.671,5.671,0,0,0,6.933,4,5.665,5.665,0,0,0,4-6.932A5.671,5.671,0,0,0-3278.33,2486.235Zm.005,13.243a7.594,7.594,0,0,1-7.324-5.621,7.587,7.587,0,0,1,5.36-9.283,7.585,7.585,0,0,1,9.283,5.36,7.586,7.586,0,0,1-5.36,9.283,7.533,7.533,0,0,1-1.959.261" fill="#6f0911" fill-rule="evenodd"/>
    <path id="Path_3514" data-name="Path 3514" d="M-3261.275,2487.327a6.619,6.619,0,0,1-4.681,8.108,6.62,6.62,0,0,1-8.108-4.682,6.62,6.62,0,0,1,4.682-8.108,6.62,6.62,0,0,1,8.107,4.682" fill="#ffffff" fill-rule="evenodd"/>
    <path id="Path_3515" data-name="Path 3515" d="M-3258.2,2490.4a6.621,6.621,0,0,1-4.68,8.109,6.622,6.622,0,0,1-8.109-4.682,6.62,6.62,0,0,1,4.682-8.108,6.618,6.618,0,0,1,8.107,4.681" fill="#ba1775" fill-rule="evenodd"/>
    <path id="Path_3516" data-name="Path 3516" d="M-3267.67,2483.379a5.694,5.694,0,0,0-1.465.193,5.631,5.631,0,0,0-3.437,2.637,5.629,5.629,0,0,0-.565,4.3,5.621,5.621,0,0,0,2.637,3.436,5.628,5.628,0,0,0,4.3.566,5.625,5.625,0,0,0,3.437-2.637,5.629,5.629,0,0,0,.565-4.3A5.671,5.671,0,0,0-3267.67,2483.379Zm-.012,13.244a7.527,7.527,0,0,1-3.777-1.019,7.521,7.521,0,0,1-3.532-4.6,7.527,7.527,0,0,1,.757-5.752,7.527,7.527,0,0,1,4.6-3.532,7.589,7.589,0,0,1,9.284,5.36h0a7.588,7.588,0,0,1-5.361,9.284,7.619,7.619,0,0,1-1.974.261" fill="#6f0911" fill-rule="evenodd"/>
    <path id="Path_3517" data-name="Path 3517" d="M-3250.617,2484.47a6.62,6.62,0,0,1-4.681,8.109,6.621,6.621,0,0,1-8.108-4.681,6.619,6.619,0,0,1,4.681-8.108,6.62,6.62,0,0,1,8.108,4.68" fill="#ffffff" fill-rule="evenodd"/>
    <path id="Path_3518" data-name="Path 3518" d="M-3247.545,2487.542a6.62,6.62,0,0,1-4.681,8.109,6.622,6.622,0,0,1-8.109-4.681,6.62,6.62,0,0,1,4.682-8.108,6.62,6.62,0,0,1,8.108,4.68" fill="#ba1775" fill-rule="evenodd"/>
    <path id="Path_3519" data-name="Path 3519" d="M-3257.012,2480.523a5.659,5.659,0,0,0-1.465.194,5.667,5.667,0,0,0-4,6.932,5.67,5.67,0,0,0,6.932,4,5.668,5.668,0,0,0,4-6.933A5.672,5.672,0,0,0-3257.012,2480.523Zm0,13.242a7.592,7.592,0,0,1-7.324-5.619,7.586,7.586,0,0,1,5.36-9.283,7.586,7.586,0,0,1,9.283,5.36,7.586,7.586,0,0,1-5.36,9.283,7.533,7.533,0,0,1-1.959.259" fill="#6f0911" fill-rule="evenodd"/>
  </g>
</svg>