<svg xmlns="http://www.w3.org/2000/svg" xmlns:xlink="http://www.w3.org/1999/xlink" version="1.1" x="0px" y="0px" viewBox="0 0 100 125" enable-background="new 0 0 100 100" xml:space="preserve">
<path fill="blue" d="M86.574,44.64c-3.929-5.335-8.926-9.408-14.07-11.469c-4.363-1.748-8.407-1.863-11.659-0.423  C57.56,22.125,51.044,13.499,50.69,13.035l-0.494-0.647l-0.734,0.354c-12.403,5.972-17.417,14.433-19.423,20.831  c-3.347-0.198-6.936,1.129-10.372,3.894c-4.318,3.474-7.907,8.828-10.105,15.077c-2.197,6.249-2.751,12.672-1.558,18.084  c1.23,5.583,4.169,9.454,8.276,10.897c1.147,0.403,2.339,0.601,3.556,0.601c4.506,0,9.342-2.708,13.451-7.61  c2.783,7.955,8.146,13.287,14.31,13.287l0.272-0.003c7.935-0.206,14.296-9.548,15.2-21.54c5.706,6.491,12.727,10.193,18.665,10.192  c2.562,0,4.921-0.687,6.884-2.132C95.698,69.104,94.782,55.79,86.574,44.64z M50.226,15.838c2.05,3.004,6.413,9.961,8.814,17.913  c-0.064,0.045-0.137,0.078-0.2,0.125c-2.114,1.557-3.567,3.87-4.286,6.74c-2.298-1.933-4.924-3.027-7.714-3.027l-0.27,0.003  c-0.229,0.006-0.456,0.024-0.682,0.045C45.107,31.64,45.267,23.096,50.226,15.838z M47.846,15.829  c-4.691,7.63-4.792,16.173-3.972,22.202c-1.523,0.454-2.963,1.25-4.288,2.338c-1.557-3.091-3.832-5.232-6.642-6.221  c-0.329-0.116-0.662-0.208-0.998-0.291C33.709,28.388,37.919,21.328,47.846,15.829z M16.942,79.637  c-3.429-1.206-5.91-4.559-6.986-9.441c-1.114-5.054-0.584-11.087,1.492-16.989c2.077-5.902,5.44-10.939,9.473-14.183  c2.881-2.318,5.837-3.495,8.569-3.466c-0.57,2.388-0.729,4.355-0.755,5.603c-0.595-0.324-0.97-0.739-1.056-0.841  c-0.35-0.424-0.976-0.486-1.403-0.139c-0.428,0.349-0.492,0.979-0.143,1.407c0.712,0.873,2.226,1.984,4.149,1.984  c1.024,0,2.165-0.315,3.362-1.148c0.454-0.316,0.565-0.939,0.25-1.392c-0.315-0.454-0.94-0.566-1.392-0.25  c-0.648,0.452-1.247,0.671-1.789,0.748c-0.017-1.111,0.07-3.159,0.687-5.726c0.296,0.069,0.594,0.131,0.881,0.233  c2.464,0.867,4.445,2.867,5.773,5.781c-4.288,4.586-7.011,12.447-6.783,21.293c0.084,3.229,0.542,6.292,1.302,9.096  C27.816,78.4,21.722,81.316,16.942,79.637z M47.816,85.798l-0.22,0.003c-7.573,0-14-10.203-14.327-22.744  c-0.293-11.36,4.439-20.953,10.92-23.041c0.339,1.864,0.736,3.38,1.04,4.409c-0.623-0.187-1.057-0.493-1.161-0.572  c-0.434-0.336-1.06-0.26-1.399,0.174c-0.341,0.435-0.264,1.063,0.17,1.404c0.708,0.555,1.947,1.145,3.373,1.145  c1.312,0,2.781-0.5,4.138-1.985c0.373-0.408,0.344-1.04-0.064-1.413c-0.407-0.372-1.04-0.343-1.413,0.064  c-0.528,0.578-1.059,0.922-1.566,1.117c-0.284-0.932-0.738-2.596-1.117-4.737c0.143-0.011,0.286-0.025,0.43-0.029l0.218-0.002  c7.575,0,14.002,10.205,14.327,22.747C61.495,75.074,55.506,85.599,47.816,85.798z M87.431,72.707  c-5.934,4.371-16.762,0.124-24.255-9.449c-0.001-0.323-0.001-0.647-0.01-0.974c-0.216-8.328-2.897-15.567-6.913-20.018  c0.446-2.753,1.6-4.96,3.364-6.441c0.488,1.952,0.824,3.946,0.979,5.939c-0.675,0.097-1.228-0.016-1.358-0.047  c-0.531-0.137-1.075,0.189-1.211,0.723c-0.137,0.535,0.187,1.08,0.721,1.216c0.358,0.092,0.802,0.152,1.289,0.152  c1.791,0,4.191-0.819,5.248-3.945c0.177-0.523-0.104-1.091-0.627-1.268s-1.091,0.104-1.268,0.627  c-0.224,0.662-0.525,1.151-0.862,1.523c-0.212-2.051-0.606-4.085-1.13-6.066c2.794-1.34,6.401-1.239,10.361,0.347  c4.804,1.925,9.493,5.76,13.203,10.798C92.518,56.088,93.625,68.146,87.431,72.707z"/></svg>