<svg xmlns="http://www.w3.org/2000/svg" xmlns:xlink="http://www.w3.org/1999/xlink" version="1.1" x="0px" y="0px" viewBox="0 0 122.583 157.58749999999998" style="enable-background:new 0 0 122.583 126.07;" xml:space="preserve">
<path fill="purple" d="M119.385,74.492c6.811-8.103,1.292-22.008-3.153-27.459c-1.233-1.513-1.295-2.176-1.502-4.373  c-0.073-0.781-0.162-1.72-0.325-2.902c-0.995-7.184-8.78-14.954-14.13-15.974c3.164-7.835-2.014-17.163-7.387-20.461  c-3.848-2.361-7.548-1.749-9.897,1.64c-0.372,0.537-0.466,1.222-0.251,1.833c0.214,0.609,0.694,1.063,1.314,1.247  c3.383,1,10.98,4.413,11.132,14.677c-0.227-0.119-0.439-0.244-0.659-0.376c-0.442-0.267-0.944-0.568-1.652-0.869  c-8.417-3.564-14.718,0.236-16.896,1.892c-1.077-1.335-2.009-2.917-2.758-4.748c-1.342-3.28-4.397-8.398-10.529-9.027  c2.99-3.652,8.161-2.932,11.388-2.472l0.123,0.018c1.113,0.157,2.005-0.019,2.645-0.526c0.388-0.309,0.871-0.896,0.963-1.949  c0.168-1.908-1.142-3.685-3.047-4.132c-9.77-2.29-17.002,3.295-19.905,8.054c-0.275-0.148-0.546-0.305-0.81-0.481  c-1.81-1.212-3.542-2.227-5.147-3.018c-2.1-1.034-4.436-1.525-6.749-1.411c-2.829,0.137-6.917,0.62-10.324,2.155  c-1.677,0.756-3.099,2.104-4.003,3.797c0,0.001-0.001,0.002-0.002,0.004c-0.67,1.265-1.831,2.21-3.183,2.593  c-3.139,0.887-8.938,3.648-12.514,12.179c-0.832,1.985-2.095,3.877-3.754,5.623l-0.173,0.182c-3.258,3.426-6.336,6.662-6.549,16.945  c-0.056,2.679-0.307,5.287-0.747,7.751c-0.911,5.104-1.947,14.485,1.349,19.988c0.794,1.328,1.077,2.854,0.795,4.299  c-1.539,7.871,2.738,21.639,10.356,26.93c2.043,1.419,4.171,2.129,6.32,2.129c1.974,0,3.965-0.6,5.924-1.8  c1.403-0.859,3.13-1.317,4.987-1.301l0.383,0.002c6.455,0.059,17.244,0.104,21.739-12.752c1.607-1.893,3.407-2.36,5.311-2.854  c1.572-0.408,3.189-0.832,4.727-2.014c0.193,4.695,2.147,6.709,3.387,7.51c-1.406,3.641-1.553,6.697-0.45,9.32  c1.77,4.21,6.242,6.232,11.063,8.098c2.249,0.87,2.37,1.583,2.59,2.878c0.068,0.401,0.146,0.855,0.292,1.342  c1.565,5.213,7.34,8.065,12.223,8.997c1.399,0.267,2.767,0.396,4.067,0.396c3.977,0,7.33-1.21,9.061-3.401  c0.618-0.782,1.531-1.226,2.571-1.248c4.852-0.107,9.029-7.304,9.447-11.158c0.079-0.728,0.376-1.376,0.837-1.827  c2.887-2.825,2.402-5.987,2.06-7.215c-0.103-0.369-0.102-0.752,0.002-1.106C122.761,90.528,121.134,78.763,119.385,74.492z   M108.668,101.621c-0.533-0.562-1.1-1.028-1.691-1.409c-0.017-0.636-0.086-1.255-0.238-1.839c0.547-1.296,3.009-4.118,6.09-4.628  c2.209-0.366,4.182,0.628,5.883,2.917c-0.172,0.881-0.372,1.754-0.614,2.61C114.651,98.18,111.119,99.427,108.668,101.621z   M98.412,115.993c-1.552,0.349-3.15,1.192-4.272,2.135c-0.498-1.32-1.301-2.484-2.244-3.44c1.088-1.909,2.804-4.025,5.255-4.553  c2.175-0.47,4.703,0.349,7.52,2.4c-0.881,1.219-1.552,2.524-1.897,3.774C101.112,115.626,99.505,115.747,98.412,115.993z   M78.345,100.134c-0.12-0.33-0.247-0.648-0.383-0.955c1.186-2.145,4.558-4.173,7.931-3.868c2.021,0.19,4.588,1.299,5.856,5.303  c-0.842,0.107-1.669,0.353-2.463,0.776c-1.261,0.671-2.346,1.705-3.201,2.971C83.719,101.78,81.122,100.37,78.345,100.134z   M49.896,81.517c-0.541-0.097-1.873-0.277-2.922,0.005c-0.331-0.525-0.716-1.006-1.133-1.43c-0.96-0.975-2.21-1.782-3.586-2.288  c0.748-2.376,2.851-4.875,5.548-5.439c2.461-0.512,4.865,0.737,7.004,3.584c-1.508,1.168-2.913,3.044-4.284,5.698  C50.313,81.598,50.104,81.554,49.896,81.517z M45.235,88.121c-1.075-0.14-2.161-0.098-3.244,0.186  c-0.481,0.126-0.942,0.293-1.388,0.488c-1.159-1.792-3.111-3.258-5.364-4.138c0.937-1.562,1.338-3.164,1.223-4.723  c2.604-1.449,6.012-0.412,7.955,1.562C46.334,83.443,46.609,85.883,45.235,88.121z M31.717,96.412  c-0.109-2.754-2.247-5.349-5.356-6.475c-0.688-0.248-1.386-0.407-2.086-0.489c1.429-2.909,4.074-3.558,5.639-3.67  c3.47-0.246,7.26,1.499,8.94,3.995c-2.312,1.606-3.939,4.069-4.625,6.386C33.275,96.171,32.4,96.286,31.717,96.412z M25.413,98.787  c-2.138-1.974-5.56-3.081-8.627-3.027c0.03-0.414,0.027-0.819,0.008-1.219c3.68-4.011,7.427-3.25,8.887-2.723  c2.334,0.845,3.999,2.788,4.046,4.726c0.039,1.561-0.995,2.949-2.932,3.974C26.449,99.909,25.997,99.327,25.413,98.787z   M13.407,96.401c-2.815,0.087-5.096-0.795-5.843-1.126c-1.055-2.365-1.841-4.879-2.313-7.325c1.413-0.56,3.987-0.303,6.205,1.094  c1.472,0.927,3.774,3.035,3.31,6.945C14.288,96.09,13.834,96.227,13.407,96.401z M10.887,98.261  c-0.353,0.461-0.624,0.977-0.814,1.541c-0.431-0.627-0.841-1.279-1.225-1.959C9.443,98.006,10.13,98.155,10.887,98.261z   M5.012,79.572c0.109-0.556,0.148-1.12,0.134-1.683c2.047,0.314,6.208,1.565,6.877,6.445c-0.486,0.673-0.869,1.409-1.129,2.196  c-2.06-0.855-4.277-1.058-5.962-0.554C4.637,83.636,4.649,81.427,5.012,79.572z M17.056,39.935c2.517-0.534,5.354,0.666,6.898,2.923  c1.582,2.311,1.492,5.26-0.186,8.179c-2.044-0.469-4.367-0.378-5.928,0.155c-0.292-1.283-0.829-2.223-1.306-2.843  c-1.063-1.381-2.652-2.328-4.449-2.767C12.892,42.451,14.626,40.452,17.056,39.935z M23.955,23.445  c2.969-1.834,6.205-0.863,8.143,0.976c1.651,1.565,2.937,4.398,1.475,7.458c-2.79-0.728-6.355-0.745-9.863,0.826  c-0.165-1.632-0.813-3.125-1.936-4.406C22.711,26.583,23.454,24.95,23.955,23.445z M31.754,19.914  c0.852-1.223,4.793-1.28,8.038,0.374c1.935,0.986,4.797,3.167,3.585,7.051c-2.32-1.225-5.16-1.613-7.488-0.504  c-0.417-1.409-1.223-2.736-2.414-3.865c-0.613-0.581-1.329-1.093-2.116-1.503C31.529,20.936,31.658,20.419,31.754,19.914z   M45.931,13.171c3.483,0.398,5.619,1.353,6.483,2.927c0.948,1.728,0.514,4.463-1.253,8.113c-1.879-0.609-3.919-0.748-5.682-0.314  c-0.515-2.095-2.046-3.91-4.501-5.235C43.526,16.555,45.066,14.758,45.931,13.171z M57.787,11.574  c0.357,0.043,0.715,0.068,1.073,0.074c3.706,3.761,4.155,6.042,1.714,9.764c-1.88-1.172-3.981-1.822-5.779-1.702  c0.237-1.563,0.089-2.902-0.403-4.056C56.709,14.658,57.585,12.958,57.787,11.574z M64.065,17.472  c1.347-0.319,4.584-0.682,7.402,2.121c0.192,0.456,0.393,0.9,0.605,1.329c0.021,0.643,0.02,3.026-0.975,5.099  c-1.836-1.524-3.995-2.184-5.943-1.72c-0.338,0.08-0.697,0.2-1.065,0.374c-0.537-0.761-1.186-1.46-1.906-2.081  C63.402,20.738,64.036,19.081,64.065,17.472z M100.485,25.877c1.377,0.391,2.933,1.298,4.465,2.54  c-1.814,1.052-2.899,2.597-3.486,4.275c-1.57-0.74-3.18-1.042-4.682-0.917c-0.241-0.901-0.775-1.701-1.486-2.377  C95.927,28.39,97.502,26.45,100.485,25.877z M112.738,42.848c0.15,1.595,0.26,2.643,0.841,3.792  c-0.766,0.182-1.741,0.478-2.775,0.954c-0.355-2.434-0.016-4.595,0.975-5.935c0.183-0.248,0.442-0.517,0.76-0.723  C112.627,41.672,112.687,42.301,112.738,42.848z M119.66,70.098c-0.368-0.141-0.734-0.25-1.097-0.329  c0.271-1.41,0.106-2.723-0.482-3.848c0.266-0.661,0.976-2.032,2.429-2.541C120.675,65.732,120.448,68.04,119.66,70.098z   M117.316,74.769c0.505,0.987,1.068,2.988,1.493,5.563c-2.829-1.843-5.445-1.238-6.915-0.596c-0.053,0.023-0.103,0.052-0.155,0.077  c-0.181-2.191,0.8-5.384,2.696-7.07c1.269-1.129,2.725-1.4,4.336-0.834c-0.369,0.608-0.794,1.187-1.295,1.723  C117.188,73.939,117.124,74.394,117.316,74.769z M114.565,91.725c0.462-1.508,1.405-3.692,2.915-4.663  c0.598-0.385,1.241-0.553,1.948-0.51c0.091,2.403,0.02,4.968-0.297,7.525C117.577,92.531,115.983,91.895,114.565,91.725z   M97.392,102.145c-1.174-0.784-2.368-1.286-3.552-1.489c-0.099-0.369-0.207-0.72-0.324-1.053c2.446-4.122,5.645-4.954,7.872-4.326  c1.869,0.529,3.136,2.038,3.497,3.998c-1.113-0.292-2.267-0.3-3.419,0.022C99.891,99.736,98.504,100.728,97.392,102.145z   M82.218,87.236c-0.041,0-0.082,0-0.123,0.001c-0.484,0.005-0.959,0.042-1.425,0.105c-0.044-0.233-0.107-0.454-0.166-0.679  c1.973-2.581,4.914-3.901,7.634-3.35c2.122,0.429,3.679,1.983,4.367,4.291c-1.162,0.775-2.154,1.798-2.94,3.051  C87.954,88.492,85.34,87.236,82.218,87.236z M61.992,66.542c-0.058-0.048-0.126-0.081-0.186-0.128  c1.589-1.482,2.343-3.286,2.135-5.205c0.739-0.432,2.239-1.122,3.762-0.681c1.554,0.453,2.821,1.994,3.769,4.576  c0.01,0.106,0.002,0.213,0.019,0.319c0.204,1.212,0.278,2.294,0.249,3.272c-1.111-0.923-2.727-1.914-4.575-1.931  c-0.017,0-0.033,0-0.049,0c-1.323,0-2.552,0.488-3.669,1.452C63.077,67.606,62.596,67.043,61.992,66.542z M54.042,65.313  c-0.241-1.075-0.679-1.931-1.151-2.591c-0.651-0.91-1.501-1.609-2.43-2.154c0.574-1.196,0.914-2.313,1.066-3.35  c1.574-1.308,3.679-1.626,5.838-0.842c2.441,0.886,4.328,2.934,4.587,4.979c0.187,1.475-0.502,2.848-1.977,4.002  C58.01,64.546,55.797,64.528,54.042,65.313z M47.394,70.409c-0.972,0.203-1.87,0.588-2.682,1.096  c-0.425-1.693-1.618-3.181-3.149-4.252c0.98-1.75,1.348-3.531,1.107-5.23l0.008,0.004c0.141-0.314,0.815-0.707,1.963-0.822  c2.182-0.22,5.155,0.63,6.623,2.681c1.216,1.701,1.271,4.059,0.194,6.852C49.818,70.13,48.378,70.203,47.394,70.409z M36.013,77.924  c-0.118-0.304-0.246-0.606-0.407-0.902c-0.989-1.815-2.75-3.301-4.779-4.194c1.15-5.383,4.783-5.482,6.348-5.258  c2.822,0.413,5.806,2.838,5.696,5.437c-1.224,1.269-2.103,2.819-2.556,4.314C38.882,77.126,37.4,77.284,36.013,77.924z   M29.773,83.783c-0.356,0.025-0.694,0.086-1.033,0.145c-1.482-2.326-4.141-3.446-6.823-3.674c0.144-1.155,0.156-2.267,0.031-3.317  c0.834-2.242,2.662-2.877,4.074-3c3.007-0.272,6.45,1.513,7.828,4.041c1.031,1.893,0.81,3.979-0.604,6.066  C32.104,83.795,30.928,83.698,29.773,83.783z M22.119,89.456c-2.028,0.247-4.01,1.165-5.761,2.708  c-0.617-1.879-1.852-3.494-3.669-4.689c0.828-3.165,3.899-4.735,6.619-5.149c2.618-0.397,5.733,0.166,7.399,2.201  C24.593,85.435,23,87.132,22.119,89.456z M18.051,53.254c0.921-0.485,4.672-1.105,7.347,0.56c2.161,1.345,2.827,3.828,2.02,7.366  c-2.035-0.704-4.293-0.765-6.29-0.08c-0.685,0.235-1.314,0.571-1.907,0.964c-0.508-1.464-1.326-2.736-2.34-3.712  C17.714,56.361,18.037,54.669,18.051,53.254z M27.05,47.392c3.897-2.526,8.319-1.813,10.435,0.418  c1.862,1.964,1.729,4.707-0.292,7.605c-1.436-0.66-2.993-1.035-4.484-0.97c-1.355,0.05-2.526,0.454-3.432,1.139  c-0.752-2.08-2.254-3.243-3.589-3.883C26.468,50.259,26.922,48.807,27.05,47.392z M35.594,32.582  c-0.04-0.018-0.084-0.034-0.125-0.052c0.523-1.172,0.77-2.386,0.747-3.582c2.359-1.563,5.988-0.56,8.073,1.489  c0.978,0.96,2.886,3.439,0.826,6.656c-0.476-0.287-0.975-0.533-1.495-0.715c-0.873-0.306-2.285-0.606-3.92-0.224  C39.017,34.737,37.584,33.469,35.594,32.582z M45.662,25.94c2.609-0.812,6.292,0.113,8.232,2.185  c1.425,1.52,1.731,3.413,0.908,5.516c-0.142-0.067-0.283-0.135-0.426-0.196c-2.138-0.912-4.651-1.271-6.478-0.51  c-0.316-1.54-1.159-2.896-2.208-3.927c-0.186-0.183-0.383-0.358-0.588-0.527C45.431,27.614,45.615,26.764,45.662,25.94z   M54.284,21.798c2.319-0.634,6.251,1.33,8.18,4.043c-0.92,0.921-1.78,2.32-2.383,4.451c-1.031-0.083-2.02,0.008-2.871,0.294  c-0.227-1.761-1.125-3.048-1.856-3.828c-0.656-0.7-1.461-1.295-2.351-1.772C53.548,23.851,53.975,22.788,54.284,21.798z   M70.938,28.669c1.219,1.481,2.178,3.755,1.545,5.964c-1.728-0.219-3.456-0.076-4.848,0.21c-0.386-0.922-1.073-1.779-2.064-2.523  c-0.99-0.743-2.226-1.317-3.508-1.669c0.746-2.508,1.962-4.028,3.552-4.404C67.308,25.848,69.398,26.797,70.938,28.669z   M90.578,37.315c-0.111,0.428-0.19,0.881-0.252,1.348c-1.627-0.059-3.747,0.346-6.485,1.617c-0.314-0.834-0.751-1.528-1.309-2.079  c-0.66-0.652-1.362-0.973-1.948-1.136c0.218-1.147,0.318-2.379,0.235-3.667C82.663,32.806,87.767,31.783,90.578,37.315z   M103.287,43.46c-0.645,0.275-1.478,0.826-2.233,1.669c-1.524-0.728-3.279-0.965-5.028-0.854c-0.06-1.07-0.329-2.041-0.795-2.862  c1.072-1.346,3.13-2.051,4.971-1.619C101.226,40.033,102.894,40.849,103.287,43.46z M112.193,65.012  c1.397-0.271,2.848,0.203,3.703,1.202c0.756,0.884,0.977,2.09,0.653,3.446c-1.236,0.139-2.404,0.665-3.442,1.589  c-0.447,0.398-0.837,0.859-1.198,1.347c-0.703-0.774-1.637-1.357-2.694-1.695c0.121-1.002-0.035-1.952-0.418-2.809  C109.697,65.836,111.29,65.185,112.193,65.012z M104.024,87.941c-2.977-1.945-6.452-2.474-9.475-1.382  c1.781-3.785,4.868-4.739,7.253-4.321c2.392,0.413,4.16,2.128,4.54,4.275C105.507,86.866,104.729,87.353,104.024,87.941z   M85.226,73.028c-0.058-0.561-0.144-1.105-0.273-1.618c2.132-3.526,5.656-4.265,8.102-3.42c1.637,0.564,3.233,1.988,3.251,4.346  c-0.844-0.052-1.703,0.014-2.528,0.219c-0.971,0.241-2.633,0.894-4.008,2.578C88.778,74.034,87.042,73.292,85.226,73.028z   M68.244,58.602c-0.111-0.032-0.221-0.052-0.331-0.076c2.255-6.015,4.314-7.728,5.377-8.209c0.246-0.112,0.442-0.155,0.614-0.179  c0.02,0.299,0.046,0.598,0.09,0.897c0.916,6.232-0.568,9.296-1.533,10.566c-0.095,0.125-0.161,0.266-0.243,0.398  C71.154,60.205,69.827,59.058,68.244,58.602z M63.383,59.233c-0.921-2.033-2.841-3.797-5.243-4.696  c1.317-2.883,3.681-5.803,6.296-6.144c1.702-0.223,3.382,0.716,5.001,2.763c-1.285,1.718-2.496,4.159-3.626,7.297  C64.854,58.587,64.009,58.915,63.383,59.233z M51.542,54.805c-0.346-2.317-1.717-4.059-3.382-5.128  c-0.611-0.392-1.262-0.7-1.926-0.928c1.364-3.136,3.427-4.837,5.8-4.783c2.821,0.06,5.7,2.453,6.893,5.648  c-1.138,1.303-2.082,2.861-2.757,4.424C54.522,53.808,52.936,54.067,51.542,54.805z M44.44,59.215  c-0.956,0.097-1.768,0.353-2.397,0.732c-0.07-0.147-0.124-0.298-0.204-0.442c-0.659-1.193-1.681-2.249-2.886-3.091  c1.22-1.798,1.839-3.6,1.858-5.283c1.195-1.223,4.113-1.155,6.27,0.231c1.327,0.851,4.011,3.331,1.56,8.376  C47.195,59.253,45.696,59.09,44.44,59.215z M37.464,65.593c-1.553-0.227-3.218-0.025-4.688,0.803  c-0.278-1.181-0.973-2.317-2.05-3.286c-0.447-0.402-0.945-0.741-1.461-1.05c0.39-1.545,0.537-2.886,0.483-4.033  c0.684-1.224,2.01-1.544,3.037-1.582c2.473-0.101,5.85,1.392,7.305,4.026c0.981,1.775,0.88,3.771-0.266,5.81  C39.058,65.948,38.261,65.709,37.464,65.593z M47.94,35.322c0.879-1.051,3.195-1.087,5.65-0.036  c2.343,1.001,4.632,3.035,4.292,5.195c-0.669,0.772-1.25,1.681-1.707,2.74c-1.276-0.771-2.68-1.224-4.098-1.253  c-0.783-0.019-1.807,0.091-2.899,0.566c-0.288-1.475-1.192-3.009-2.466-4.222C47.39,37.292,47.776,36.288,47.94,35.322z   M57.106,32.883c1.191-1.036,4.876-0.759,7.264,1.034c1.621,1.217,2.036,2.639,1.245,4.234c-1.02-0.331-2.12-0.444-3.22-0.271  c-0.942,0.146-1.815,0.493-2.619,0.983c-0.411-1.66-1.657-3.117-3.226-4.211C56.817,34.03,56.993,33.443,57.106,32.883z   M70.256,44.348c1.076-0.291,3.178-0.561,4.289,1.237c-0.3,0.815-0.5,1.666-0.598,2.54c-0.37,0.018-0.795,0.09-1.274,0.28  c-0.643,0.255-1.273,0.668-1.888,1.232c-0.466-0.559-0.929-1.035-1.385-1.428C69.997,46.894,70.285,45.586,70.256,44.348z   M94.601,56.638c0.004,0.126,0.005,0.243,0.008,0.364c-2.54,0.142-4.74,1.085-6.185,2.642c-0.523-0.405-1.187-0.706-2.043-0.915  c-0.381-1.385-0.797-2.559-1.275-3.54c0.697-1.077,3.405-2.266,6.104-2.279c0.891-0.029,2.96,0.139,3.425,1.562l0.056-0.018  C94.562,55.227,94.582,55.997,94.601,56.638z M80.457,59.395c-1.114-1.462-3.09-2.203-4.283-2.531  c0.12-1.124,0.148-2.401,0.046-3.852c4.893-0.485,6.561,0.602,7.995,5.401c-0.112-0.008-0.213-0.021-0.329-0.028  C82.546,58.402,81.41,58.732,80.457,59.395z M75.972,50.745c-0.257-1.75-0.001-3.533,0.702-5.085  c0.265,0.345,0.584,0.888,0.909,1.712c-0.368,1.049-0.603,2.395-0.706,3.594c-0.282,0.016-0.569,0.035-0.868,0.063  C75.995,50.933,75.986,50.842,75.972,50.745z M87.919,51.381c-1.55,0.429-2.976,1.134-3.902,2.034  c-1.233-1.549-2.851-2.295-5.133-2.449c0.128-1.33,0.417-2.656,0.751-3.36c1.415-1.211,3.432-1.5,5.185-0.73  C86.576,47.644,87.696,49.3,87.919,51.381z M82.44,44.47c-1.227,0.063-2.425,0.44-3.459,1.129c-0.423-0.821-0.855-1.374-1.234-1.74  c0.691-1.035,1.671-2.731,2.345-4.853c0.307,0.094,0.682,0.27,1.036,0.62C82.037,40.523,82.485,42.188,82.44,44.47z M67.728,47.07  c-1.353-0.692-2.583-0.788-3.55-0.661c-1.33,0.174-2.58,0.805-3.707,1.711c-0.647-1.409-1.559-2.649-2.637-3.643  c0.991-2.612,2.733-4.291,4.866-4.622c1.84-0.281,3.7,0.483,4.736,1.957C68.449,43.251,68.54,45.091,67.728,47.07z M73.465,65.091  c-0.132-0.783,0.083-1.613,0.588-2.278c0.669-0.881,1.351-2.161,1.782-3.961c1.121,0.336,2.604,0.993,3.183,2.006  c-1.003,1.469-1.344,3.251-1.456,4.384c-1.308-0.076-2.672,0.105-3.999,0.565C73.531,65.568,73.506,65.338,73.465,65.091z   M81.121,61.426c0.699-0.71,1.59-1.013,2.696-1.042c2.017,0.124,3.191,0.488,3.697,1.146c0.571,0.743,0.594,2.187,0.084,4.886  c-1.273,0.561-2.494,1.455-3.532,2.757c-0.659-1.178-1.562-2.142-2.701-2.822c-0.565-0.338-1.182-0.589-1.826-0.777  C79.629,64.527,79.952,62.61,81.121,61.426z M94.259,74.496c2.413-0.599,4.919,0.358,5.945,1.656  c-0.332,1.116-0.521,2.469-0.513,4.079c-2.252,0.305-4.676,1.569-6.371,4.381c-0.922-1.409-2.208-2.433-3.78-2.975  C89.84,77.72,91.487,75.185,94.259,74.496z M102.143,80.266c-0.15-0.026-0.306-0.044-0.462-0.061  c-0.006-4.123,1.585-6.912,4.345-7.53c1.925-0.432,3.968,0.366,4.792,1.789c-1.014,2.196-1.331,4.657-0.916,6.482  c-1.022,0.811-1.866,1.808-2.466,2.828C106.348,81.977,104.453,80.665,102.143,80.266z M107.239,70.58  c-0.547-0.011-1.1,0.02-1.65,0.145c-0.919,0.205-3.1,0.951-4.54,3.442c-0.757-0.655-1.709-1.154-2.765-1.467  c0.057-1.374-0.249-2.649-0.9-3.725c1.779-2.603,5.038-3.046,7.359-2.079C105.435,67.184,107.481,68.249,107.239,70.58z   M101.113,63.309c-0.005,0.429-0.016,0.834-0.038,1.221c-1.872,0.279-3.7,1.198-5.03,2.9c-0.658-0.559-1.435-1.019-2.34-1.331  c-1.187-0.411-2.565-0.54-3.967-0.317c0.291-1.834,0.323-3.313-0.109-4.474c1.174-1.499,3.279-2.383,5.759-2.34  c2.519,0.029,4.794,0.99,5.807,2.409C101.13,62.053,101.12,62.713,101.113,63.309z M95.592,52.361  c-0.95-0.932-2.441-1.452-4.338-1.452c-0.019,0-0.037,0-0.055,0c-0.426,0.002-0.864,0.031-1.306,0.083  c-0.09-0.722-0.273-1.4-0.525-2.034c1.808-1.901,6.934-3.692,10.553-2.151c-0.518,1.04-0.858,2.315-0.833,3.844  C97.322,50.919,96.25,51.561,95.592,52.361z M94.041,44.546c-2.265,0.472-4.347,1.454-5.69,2.632  c-0.708-0.913-1.621-1.651-2.728-2.137c-0.39-0.171-0.79-0.291-1.194-0.388c0.023-0.857-0.012-1.651-0.11-2.375  c3.592-1.737,6.482-2.097,8.166-0.976C93.451,41.947,93.997,43.108,94.041,44.546z M75.836,43.109  c-0.113,0.159-0.21,0.326-0.313,0.491c-1.607-1.627-3.922-1.64-5.602-1.231c-0.199-0.601-0.475-1.175-0.848-1.705  c-0.456-0.649-1.032-1.188-1.674-1.631c0.367-0.745,0.57-1.489,0.597-2.216c2.071-0.416,7.659-1.06,9.466,3.442  C76.888,41.529,76.256,42.518,75.836,43.109z M42.96,38.266c2.618,0.915,4.526,3.754,4.306,5.499  c-1.095,0.956-2.156,2.398-3.023,4.546c-1.388-0.141-2.721,0.071-3.777,0.615c-0.307-0.897-0.813-1.737-1.529-2.492  c-1.111-1.171-2.71-2.018-4.536-2.401C36.72,39.183,39.731,37.133,42.96,38.266z M21.776,62.992c2.903-0.993,5.98,0.136,7.611,1.604  c0.676,0.609,1.724,1.843,1.479,3.408c-0.852,1.022-1.54,2.392-1.954,4.187c-1.014-0.24-2.053-0.334-3.065-0.245  c-1.902,0.166-3.476,0.968-4.582,2.256c-0.561-1.417-1.406-2.656-2.55-3.63c-0.58-0.494-1.214-0.892-1.879-1.201  C17.613,66.046,19.302,63.839,21.776,62.992z M73.743,67.882c2.305-0.949,4.783-0.9,6.597,0.186c1.6,0.956,2.581,2.626,2.873,4.862  c-1.815,0.086-3.641,0.682-5.097,1.954c-1.26-2.316-3.18-3.196-4.712-3.407C73.651,70.415,73.78,69.231,73.743,67.882z   M83.895,74.92c2.618,0.044,4.525,1.261,4.691,2.136c-0.503,1.106-0.878,2.474-1.031,4.168c-2.827-0.224-5.726,1.002-7.888,3.314  c-0.606-1.102-1.438-2.048-2.475-2.823C77.655,75.343,82.404,74.929,83.895,74.92z M95.157,88.459  c2.329-0.865,5.041-0.511,7.434,0.926c-0.891,1.11-1.542,2.399-1.871,3.747c-2.487-0.227-5.658,0.818-8.185,4.323  c-0.747-1.254-1.637-2.133-2.551-2.752C90.838,91.604,92.648,89.392,95.157,88.459z M102.658,93.628  c0.563-2.327,2.418-4.512,4.668-5.374c1.44-0.553,3.614-0.778,6.017,1.047c-0.435,0.974-0.712,1.877-0.868,2.478  c-2.808,0.475-5.338,2.486-6.724,4.364C105.003,95.017,103.938,94.152,102.658,93.628z M116.398,85.38  c-0.852,0.548-1.536,1.319-2.09,2.152c-1.789-1.278-3.732-1.826-5.673-1.624c0.516-1.491,2.003-3.438,4.061-4.338  c2.256-0.987,4.497-0.389,6.503,1.702c0.043,0.419,0.084,0.841,0.118,1.278C118.274,84.528,117.295,84.802,116.398,85.38z   M116.693,64.227c-0.829-0.671-1.841-1.093-2.921-1.231c0.474-5.077,2.864-6.532,4.969-7.338c0.686,1.816,1.233,3.756,1.542,5.708  C118.429,61.835,117.312,63.153,116.693,64.227z M111.767,63.06c-1.815,0.365-3.318,1.505-4.304,3.201  c-0.541-0.484-1.193-0.896-1.952-1.212c-0.749-0.311-1.573-0.505-2.423-0.58c0.016-0.37,0.021-0.749,0.025-1.139  c0.033-2.979,0.061-5.552,5.239-5.979c2.707-0.238,3.797,0.308,4.203,0.652c0.204,0.174,0.286,0.335,0.324,0.445  C112.325,59.652,111.924,61.161,111.767,63.06z M101.74,59.056c-1.295-1.067-3.109-1.789-5.131-2.012  c-0.003-0.155-0.004-0.307-0.009-0.467c-0.066-2.201-0.114-3.792,3.648-4.039c3.249-0.338,4.946-0.202,5.681,0.461  c0.464,0.418,0.695,1.192,0.757,2.57C103.795,56.126,102.403,57.488,101.74,59.056z M106.49,50.994  c-1.278-0.663-3.077-0.735-5.403-0.542c0.014-3.818,2.878-5.108,3.023-5.17c2.646-1.172,4.15,0.504,4.583,1.103  c0.03,0.732,0.121,1.486,0.27,2.256C108.071,49.253,107.212,50.019,106.49,50.994z M112.194,38.891  c-0.762,0.296-1.462,0.821-2.023,1.579c-0.66,0.893-1.094,2.039-1.319,3.33c-0.924-0.623-2.148-1.057-3.613-0.89  c-0.194-1.057-0.586-1.981-1.133-2.755c0.588-1.03,2.584-3.42,7.831-2.11C112.03,38.327,112.124,38.61,112.194,38.891z   M100.657,37.847c-2.47-0.582-5.152,0.287-6.745,2.041c-0.105-0.082-0.203-0.172-0.315-0.247c-0.36-0.24-0.794-0.459-1.302-0.631  c0.276-2.284,1.214-3.911,2.75-4.719c1.627-0.856,3.856-0.685,5.942,0.407c-0.159,1.126-0.154,2.239-0.048,3.239  C100.843,37.91,100.755,37.87,100.657,37.847z M94.831,32.213c-0.243,0.093-0.486,0.187-0.717,0.309  c-1.071,0.563-1.929,1.415-2.574,2.489c-1.889-2.777-4.352-3.785-6.573-4.014c1.213-1.775,3.413-2.176,5.299-1.866  C92.292,29.459,94.367,30.659,94.831,32.213z M82.703,31.003c-0.844,0.086-1.586,0.247-2.158,0.406  c-0.295-1.372-0.825-2.789-1.66-4.219c0.222-0.077,0.493-0.126,0.811-0.092c0.779,0.077,2.013,0.666,3.572,2.852  C83.051,30.277,82.864,30.628,82.703,31.003z M78.357,37.757c-1.021-1.371-2.404-2.221-3.907-2.699  c0.311-1.18,0.301-2.436,0.016-3.681c0.288-0.569,1.192-1.986,3.133-2.325C79.13,32.215,79.018,35.264,78.357,37.757z   M23.646,34.967c4.105-2.224,8.415-1.77,11.134-0.558c1.445,0.644,2.538,1.549,3.049,2.476c-1.845,1.021-3.808,3.069-5.528,6.924  c-1.731-0.011-3.565,0.398-5.338,1.322c-0.203-1.2-0.639-2.351-1.36-3.404c-0.841-1.227-1.992-2.192-3.28-2.866  C23.015,37.529,23.456,36.222,23.646,34.967z M14.95,49.57c1.401,1.819,1.482,4.418,0.27,7.555c-0.87-0.474-1.813-0.764-2.792-0.81  c-0.55-0.025-1.357,0.027-2.27,0.355c-0.34-1.999-1.157-3.576-2.456-4.684c-1.253-1.069-2.687-1.472-3.765-1.617  c0.921-1.521,2.523-2.595,4.517-2.949C11.039,46.96,13.591,47.806,14.95,49.57z M2.874,55.254c0.171-0.96,0.306-1.946,0.422-2.943  c0.799,0.061,2.067,0.309,3.108,1.197c1.072,0.914,1.683,2.354,1.864,4.237c-1.247,0.99-2.507,2.635-3.481,5.365  c-1.024-0.722-2.02-1.122-2.714-1.328C2.226,59.328,2.558,57.021,2.874,55.254z M12.333,58.313c2.349,0.11,4.516,2.319,5.212,5.203  c-1.202,1.34-2.089,3.108-2.614,5.238c-1.331-0.249-2.706-0.153-3.985,0.322c-0.824,0.307-1.568,0.769-2.238,1.343  c-0.268-2.651-1.182-4.524-2.303-5.833C7.675,60.477,9.824,58.187,12.333,58.313z M11.644,70.952c1.9-0.708,4.114-0.27,5.775,1.145  c2.094,1.783,2.969,4.73,2.481,8.154c-0.301,0.023-0.6,0.053-0.892,0.098c-2.076,0.316-3.891,1.109-5.311,2.241  c-1.006-3.482-3.65-5.329-6.16-6.183C8.162,73.641,9.595,71.714,11.644,70.952z M56.543,74.921  c-1.102-1.504-2.217-2.548-3.291-3.259c0.636-1.585,0.919-2.967,0.97-4.165c1.651-1.197,4.62-0.97,6.493,0.583  c1.9,1.576,2.106,4.001,0.643,6.724c-1.341-0.409-2.635-0.505-3.917-0.186C57.136,74.695,56.838,74.801,56.543,74.921z   M64.23,70.246c0.914-0.992,1.864-1.45,2.912-1.482c1.891,0.014,3.599,1.64,4.272,2.371c-0.694,2.805-2.374,4.598-4.025,6.347  c-0.123,0.13-0.245,0.261-0.368,0.392c-1.328-0.939-2.581-1.729-3.786-2.317C64.202,73.68,64.532,71.864,64.23,70.246z   M68.844,78.854c1.436-1.522,2.967-3.155,3.931-5.428c0.931,0.032,2.84,0.453,3.918,3.143c-0.677,1.07-1.171,2.403-1.4,4.036  c-2.124-0.945-4.666-1.235-7.293-0.845C68.275,79.459,68.557,79.158,68.844,78.854z M65.706,83.232  c0.121-0.351,0.278-0.684,0.453-1.008c3.502-1.075,7.014-0.787,9.457,0.81c1.671,1.093,2.732,2.735,3.103,4.775  c-1.521,0.5-2.853,1.306-3.842,2.357c-0.818-2.636-2.2-4.19-3.446-5.097c-1.889-1.375-4.015-1.726-5.832-1.565  C65.633,83.41,65.672,83.33,65.706,83.232z M75.442,92.851c0.98-2.104,3.675-3.582,6.675-3.614c0.033-0.001,0.066-0.001,0.1-0.001  c2.881,0,5.198,1.312,6.311,3.522c-0.129,0.332-0.253,0.669-0.36,1.022c-0.764-0.271-1.485-0.404-2.087-0.46  c-3.465-0.322-7.218,1.343-9.201,3.885c-0.391-0.576-0.821-1.09-1.289-1.543C75.597,94.643,75.548,93.703,75.442,92.851z   M86.027,111.518c-0.028-3.573,1.651-7.007,4.198-8.363c1.879-1.001,3.971-0.759,6.089,0.669c-0.771,1.451-1.32,3.174-1.597,5.097  c-1.656,0.88-3.133,2.392-4.368,4.457C89.074,112.485,87.575,111.821,86.027,111.518z M106.264,110.662  c-0.108,0.109-0.216,0.217-0.321,0.329c-3.279-2.409-6.327-3.371-9.066-2.833c0.765-3.645,2.656-6.246,5.128-6.937  c1.834-0.51,3.728,0.171,5.294,1.863c-0.035,0.045-0.073,0.087-0.107,0.132C105.292,105.752,104.973,108.568,106.264,110.662z   M117.977,53.809c-1.254,0.489-2.761,1.259-3.986,2.799c-0.003-0.003-0.005-0.006-0.009-0.009c-1.054-0.994-2.844-1.414-5.307-1.269  c-0.063-1.166-0.252-2.157-0.711-2.949c1.968-2.828,5.499-3.712,6.823-3.948C115.899,49.824,117.02,51.688,117.977,53.809z   M111.001,35.816c-4.423-0.686-6.813,1.034-7.992,2.47c-0.326-2.105-0.482-6.618,3.542-8.437  C108.305,31.568,109.9,33.655,111.001,35.816z M84.633,6.102c2.327-3.356,5.516-2.114,7.208-1.075  c4.759,2.921,9.513,11.64,6.342,18.507c-0.368-0.046-0.694-0.097-0.984-0.153C97.389,10.899,87.664,7.024,84.633,6.102z   M96.598,25.304c-1.462,0.945-2.397,2.104-2.925,2.923c-0.958-0.529-2.031-0.9-3.088-1.072c-1.015-0.164-1.978-0.157-2.873-0.011  c0.71-1.421,2.239-3.228,5.378-3.327c0.136,0.079,0.27,0.158,0.404,0.239C94.275,24.527,95.027,24.979,96.598,25.304z   M89.736,22.529c-2.75,1.229-4.07,3.758-4.487,5.51c-0.207,0.124-0.405,0.259-0.595,0.405c-1.564-2.084-3.184-3.206-4.828-3.342  c-0.867-0.069-1.56,0.146-2.071,0.404c-0.155-0.205-0.311-0.409-0.479-0.614C78.99,23.608,83.554,20.911,89.736,22.529z   M76.539,27.245c-1.344,0.389-2.289,1.142-2.927,1.87c-0.293-0.55-0.635-1.088-1.045-1.6c0.691-1.196,1.072-2.494,1.278-3.639  c0.402,0.556,0.82,1.089,1.267,1.576C75.66,26.048,76.128,26.647,76.539,27.245z M69.483,15.903  c-2.306-0.912-4.455-0.694-5.701-0.422c-0.379-1.277-1.146-2.568-2.316-3.948C65.221,11.552,67.769,13.502,69.483,15.903z   M74.307,2.477c0.927,0.218,1.591,1.1,1.511,2.009c-0.024,0.276-0.097,0.465-0.214,0.559c-0.185,0.145-0.594,0.186-1.121,0.112  L74.361,5.14C70.616,4.607,63.744,3.65,60.27,9.59c-0.127,0.011-0.246,0.008-0.376,0.022c-1.044,0.12-2.112,0.021-3.151-0.268  C59.416,5.185,65.764,0.472,74.307,2.477z M52.936,9.765c0.907,0.607,1.881,1.064,2.884,1.383c-0.069,0.765-0.504,2.066-2.543,2.805  c-1.332-1.403-3.473-2.283-6.579-2.702c0.48-1.9,0.046-3.509-0.489-5.064c0.617,0.187,1.226,0.406,1.809,0.693  C49.544,7.631,51.199,8.601,52.936,9.765z M29.59,10.568c0.697-1.305,1.784-2.341,3.061-2.916c3.121-1.405,6.942-1.853,9.598-1.98  c0.562-0.026,1.124-0.001,1.684,0.054c0.061,0.178,0.12,0.358,0.182,0.534c1.146,3.24,2.034,5.821-5.215,11.5  c-2.432-0.82-5.107-0.989-6.973-0.297c-0.062-0.931-0.274-1.804-0.645-2.612c-0.675-1.473-1.731-2.419-2.576-2.986  C29.043,11.467,29.343,11.035,29.59,10.568z M25.185,14.146c0.696-0.197,1.354-0.501,1.955-0.894  c0.612,0.331,1.715,1.082,2.336,2.457c0.623,1.379,0.628,3.07,0.019,5.033c-1.537-0.411-3.225-0.415-4.909,0.186  c0.307-1.751,0.26-3.283-0.206-4.503c-0.243-0.636-0.592-1.174-1.027-1.615C24.03,14.511,24.651,14.297,25.185,14.146z   M21.428,15.84c0.492,0.27,0.853,0.694,1.084,1.298c0.382,1.001,0.873,3.896-2.254,9.782c-1.857-1.342-4.203-2.055-6.2-1.937  C16.128,20.153,18.94,17.403,21.428,15.84z M9.824,31.401c1.233-1.298,2.252-2.68,3.081-4.118c1.656-0.777,5.014-0.097,7.119,2.056  c2.155,2.205,2.277,5.302,0.416,8.768c-1.248-0.332-2.552-0.393-3.801-0.128c-1.32,0.281-2.492,0.892-3.485,1.785  c-0.4-3.758-2.926-6.135-4.411-7.215c0.297-0.322,0.599-0.641,0.906-0.965L9.824,31.401z M7.432,34.061  c1.445,0.995,4.67,3.82,3.561,8.69l0.001,0c-0.371,0.778-0.669,1.638-0.895,2.569c-0.657-0.018-1.324,0.012-1.994,0.131  c-1.761,0.312-3.286,1.077-4.47,2.164c0.004-0.142,0.014-0.281,0.017-0.423C3.799,40.056,5.351,36.683,7.432,34.061z M1.997,63.839  c1.786,0.654,5.088,2.721,4.784,8.965c-0.516,0.918-0.912,1.965-1.18,3.12c-0.268-0.044-0.528-0.078-0.777-0.101  c-0.198-0.677-0.481-1.336-0.855-1.96C2.392,71.228,1.945,67.489,1.997,63.839z M14.546,104.476  c-0.999-0.694-1.927-1.56-2.795-2.533c-0.022-1.683,0.689-2.891,2.137-3.581c2.802-1.336,7.649-0.433,10.168,1.894  c1.328,1.227,1.76,2.605,1.311,4.098c-0.256,0.127-0.521,0.241-0.763,0.389C21.193,106.832,17.81,106.744,14.546,104.476z   M31.031,103.149l-0.385-0.002c-1.077,0.009-2.121,0.142-3.11,0.39c0.02-0.378-0.009-0.75-0.067-1.118  c2.344-1.161,3.43-2.611,3.909-3.891c1.235-0.295,4.543-0.89,6.684,0.564c1.021,0.693,1.623,1.789,1.876,3.281  C36.831,103.186,33.653,103.169,31.031,103.149z M41.874,101.749c-0.382-1.903-1.28-3.356-2.695-4.315  c-0.89-0.603-1.896-0.942-2.902-1.117c0.896-2.536,3.173-5.279,6.219-6.074c2.691-0.708,5.382,0.321,7.813,2.927  C48.276,97.938,45.196,100.444,41.874,101.749z M51.173,91.184c-1.233-1.183-2.547-2.046-3.904-2.566  c0.974-1.859,1.031-3.658,0.558-5.23c0.926-0.099,2.88,0.141,4.603,1.132c1.15,0.661,2.485,1.848,2.737,3.811  C53.813,88.853,52.438,89.666,51.173,91.184z M57.567,87.606c-0.153,0.04-0.31,0.082-0.466,0.123  c-0.474-2.702-2.442-4.47-4.659-5.442c1.784-3.368,3.582-5.258,5.481-5.728c2.321-0.579,5.069,0.929,7.765,2.821  c-0.772,0.949-1.451,1.98-1.872,3.198c-0.453,1.31-0.987,2.227-1.68,2.888C60.765,86.776,59.211,87.18,57.567,87.606z   M64.818,85.638c1.519-0.35,3.646-0.254,5.436,1.047c1.959,1.427,3.078,4.006,3.296,7.504c-2.555-1.295-5.09-0.897-6.027-0.677  C66.784,93.146,64.474,91.506,64.818,85.638z M68.197,95.411c1.384-0.282,5.712-0.667,8.019,4.76  c-3.758,0.488-6.751,2.949-8.162,4.331c-0.178-0.294-0.342-0.597-0.477-0.919C66.651,101.384,66.863,98.702,68.197,95.411z   M77.516,110.592c-3.207-1.241-6.235-2.546-8.211-4.509c1.26-1.265,4.424-4.004,8.211-4.004c0.026,0,0.052,0,0.078,0  c2.648,0.027,5.158,1.437,7.471,4.158c-0.672,1.552-1.048,3.302-1.057,5.107c-1.29,0.027-2.558,0.345-3.706,1.024  C79.76,111.736,78.908,111.13,77.516,110.592z M81.592,116.101c-0.11-0.368-0.171-0.725-0.235-1.103  c-0.047-0.275-0.095-0.557-0.164-0.842c2.603-1.641,6.203-0.662,8.574,1.286c2.142,1.758,3.794,4.796,2.326,8.228  C87.826,122.816,82.882,120.397,81.592,116.101z M103.459,121.429c-1.581,2.002-5.203,2.953-9.341,2.546  c0.449-1.21,0.606-2.375,0.536-3.474c0.313-0.596,2.517-2.512,5.126-2.695c1.931-0.144,3.545,0.726,4.815,2.568  C104.171,120.667,103.784,121.017,103.459,121.429z M107.555,119.421c-0.378,0.008-0.747,0.058-1.106,0.14  c-0.589-0.918-1.224-1.624-1.877-2.164c0.459-2.744,3.37-6.314,6.306-7.614c1.621-0.717,3.041-0.714,4.23,0.002  c-0.014,0.089-0.041,0.173-0.05,0.263C114.682,113.518,110.908,119.347,107.555,119.421z M116.484,107.006  c-0.267,0.262-0.488,0.569-0.687,0.892c-1.675-0.859-3.662-0.858-5.729,0.055c-0.776,0.343-1.537,0.81-2.263,1.359  c-0.762-1.581-0.063-3.496,0.986-4.895c1.97-2.628,5.675-4.445,9.137-3.087c0.024,0.143,0.049,0.286,0.088,0.428  C118.324,102.857,118.532,105.002,116.484,107.006z"/></svg>